<svg id="Original_Colors" data-name="Original Colors" xmlns="http://www.w3.org/2000/svg" xmlns:xlink="http://www.w3.org/1999/xlink" viewBox="0 0 1920 1080"><defs><style>.cls-1{fill:url(#linear-gradient);}.cls-2{fill:url(#linear-gradient-2);}.cls-3{fill:url(#linear-gradient-3);}.cls-4{fill:url(#linear-gradient-4);}.cls-5{fill:url(#linear-gradient-5);}</style><linearGradient id="linear-gradient" x1="980.58" y1="-107.38" x2="954.97" y2="729.24" gradientUnits="userSpaceOnUse"><stop offset="0" stop-color="#996fce"/><stop offset="0.47" stop-color="#c9438c"/><stop offset="1" stop-color="#f2be79"/></linearGradient><linearGradient id="linear-gradient-2" x1="959.81" y1="837.95" x2="967.42" y2="376.3" gradientUnits="userSpaceOnUse"><stop offset="0.01" stop-color="#996fce" stop-opacity="0"/><stop offset="1" stop-color="#f2be79"/></linearGradient><linearGradient id="linear-gradient-3" x1="968.02" y1="659.64" x2="1006.86" y2="38.31" xlink:href="#linear-gradient-2"/><linearGradient id="linear-gradient-4" x1="958.51" y1="752.97" x2="988.8" y2="-1039.42" xlink:href="#linear-gradient-2"/><linearGradient id="linear-gradient-5" x1="981.32" y1="343.98" x2="1073.66" y2="-438.28" xlink:href="#linear-gradient-2"/></defs><title>backgroundArtboard 1</title><g id="Sky"><rect class="cls-1" x="-6.32" y="-8.06" width="1934.2" height="1095.15"/><path id="sky_shade_04" class="cls-2" d="M1828.13,609.17c-354,65.24-385.57-109.29-785.48-59.69C912.81,565.59,790.44,608,654,596.57,566.25,589.24,481.72,571,394.94,568,251.85,563.2,135.7,612.24-6.32,619.11V938.7h1934.2V590.59C1894.5,596.25,1861.39,603.05,1828.13,609.17Z"/><path id="sky_shade_03" class="cls-3" d="M1538.91,455.65c-160.56-20-116.05-61.2-531.88-21.67-143.94,13.68-178.58,33.94-270.9,34.08-172.33.26-253-44.93-505.29,38.82-78.92,26.2-155.46,57.28-237.16,75.2v387h1934.2V420.76C1766,423.46,1697.76,475.43,1538.91,455.65Z"/><path id="sky_shade_02" class="cls-4" d="M1220,360.59c-168.4-2.64-306.72-85.16-509.56-98.8C580,253,441.44,286.27,305.73,283.35,195,281,94.08,259.75-6.32,268v701h1934.2V297.6C1485.09,288.91,1393.3,363.3,1220,360.59Z"/><path id="sky_shade_01" class="cls-5" d="M1271.46,149.28C1062.52,87.6,985,77,737.24,108.41,356.28,156.71,267,46.56-6.32,37.2V998.9h1934.2V214.22C1649.76,255.88,1463.84,206.07,1271.46,149.28Z"/></g></svg>