<svg xmlns="http://www.w3.org/2000/svg" xmlns:xlink="http://www.w3.org/1999/xlink" viewBox="0 0 1920 1080"><defs><style>.cls-1{isolation:isolate;}.cls-2,.cls-3,.cls-4,.cls-5,.cls-6{mix-blend-mode:color-dodge;}.cls-2{fill:url(#radial-gradient);}.cls-3{fill:url(#radial-gradient-2);}.cls-4{fill:url(#radial-gradient-3);}.cls-5{fill:url(#radial-gradient-4);}.cls-6{fill:url(#radial-gradient-5);}</style><radialGradient id="radial-gradient" cx="-2454.12" cy="-2189.48" r="6.22" gradientTransform="matrix(-0.5, -1.23, -1.2, 0.51, -2076.83, -1052.68)" gradientUnits="userSpaceOnUse"><stop offset="0" stop-color="#ffb400"/><stop offset="0.22" stop-color="#ffbc00" stop-opacity="0.85"/><stop offset="0.72" stop-color="#ffd100" stop-opacity="0.48"/><stop offset="1" stop-color="#fd0" stop-opacity="0.25"/></radialGradient><radialGradient id="radial-gradient-2" cx="-2399.81" cy="-2147.36" r="3.31" xlink:href="#radial-gradient"/><radialGradient id="radial-gradient-3" cx="-2294" cy="-2167.33" r="3.31" xlink:href="#radial-gradient"/><radialGradient id="radial-gradient-4" cx="-2364.17" cy="-2134.02" r="3.31" xlink:href="#radial-gradient"/><radialGradient id="radial-gradient-5" cx="-2370.5" cy="-2192.79" r="3.31" xlink:href="#radial-gradient"/></defs><title>fireflies_04Artboard 1</title><g class="cls-1"><g id="Original_Colors" data-name="Original Colors"><g id="Fireflies"><g id="fireflies_04" data-name="fireflies 04"><path class="cls-2" d="M1790.37,825.55a8.32,8.32,0,0,0-4.36,10.8,8.06,8.06,0,0,0,10.61,4.44A8.31,8.31,0,0,0,1801,830,8.06,8.06,0,0,0,1790.37,825.55Z"/><path class="cls-3" d="M1713.81,784.14a4.43,4.43,0,0,0-2.32,5.75,4.29,4.29,0,0,0,5.65,2.36,4.42,4.42,0,0,0,2.32-5.75A4.29,4.29,0,0,0,1713.81,784.14Z"/><path class="cls-4" d="M1684.6,644.23a4.44,4.44,0,0,0-2.32,5.76,4.3,4.3,0,0,0,5.65,2.36,4.43,4.43,0,0,0,2.32-5.75A4.29,4.29,0,0,0,1684.6,644.23Z"/><path class="cls-5" d="M1679.82,747.3a4.41,4.41,0,0,0-2.32,5.75,4.29,4.29,0,0,0,5.65,2.36,4.43,4.43,0,0,0,2.32-5.75A4.29,4.29,0,0,0,1679.82,747.3Z"/><path class="cls-6" d="M1753.74,724.94a4.42,4.42,0,0,0-2.31,5.75,4.3,4.3,0,0,0,5.65,2.37,4.43,4.43,0,0,0,2.31-5.76A4.29,4.29,0,0,0,1753.74,724.94Z"/></g></g></g></g></svg>