<svg xmlns="http://www.w3.org/2000/svg" xmlns:xlink="http://www.w3.org/1999/xlink" viewBox="0 0 1920 1080"><defs><style>.cls-1{isolation:isolate;}.cls-2,.cls-3,.cls-4,.cls-5,.cls-6,.cls-7,.cls-8{mix-blend-mode:color-dodge;}.cls-2{fill:url(#radial-gradient);}.cls-3{fill:url(#radial-gradient-2);}.cls-4{fill:url(#radial-gradient-3);}.cls-5{fill:url(#radial-gradient-4);}.cls-6{fill:url(#radial-gradient-5);}.cls-7{fill:url(#radial-gradient-6);}.cls-8{fill:url(#radial-gradient-7);}</style><radialGradient id="radial-gradient" cx="-1850.75" cy="-2706.21" r="3.18" gradientTransform="matrix(-0.44, -1.25, -1.23, 0.45, -2613.17, -781.09)" gradientUnits="userSpaceOnUse"><stop offset="0.27" stop-color="#ffb400"/><stop offset="0.39" stop-color="#d99900"/><stop offset="0.67" stop-color="#785500"/><stop offset="1"/></radialGradient><radialGradient id="radial-gradient-2" cx="-1869.16" cy="-2798.63" r="6.22" xlink:href="#radial-gradient"/><radialGradient id="radial-gradient-3" cx="-2100.1" cy="-2822.07" r="6.22" xlink:href="#radial-gradient"/><radialGradient id="radial-gradient-4" cx="-2066.83" cy="-2856.79" r="3.31" xlink:href="#radial-gradient"/><radialGradient id="radial-gradient-5" cx="-1993.88" cy="-2863.84" r="3.31" xlink:href="#radial-gradient"/><radialGradient id="radial-gradient-6" cx="-1877.17" cy="-2847.21" r="3.31" xlink:href="#radial-gradient"/><radialGradient id="radial-gradient-7" cx="-2014.7" cy="-2818.79" r="3.31" xlink:href="#radial-gradient"/></defs><title>fireflies_05Artboard 1</title><g class="cls-1"><g id="Original_Colors" data-name="Original Colors"><g id="Fireflies"><g id="fireflies_05" data-name="fireflies 05"><path class="cls-2" d="M1521.77,323.44a4.25,4.25,0,0,0-2.52,5.4,4.13,4.13,0,0,0,5.31,2.56,4.24,4.24,0,0,0,2.51-5.4A4.13,4.13,0,0,0,1521.77,323.44Z"/><path class="cls-3" d="M1642.08,301.45a8.29,8.29,0,0,0-4.91,10.55,8.07,8.07,0,0,0,10.36,5,8.29,8.29,0,0,0,4.91-10.55A8.07,8.07,0,0,0,1642.08,301.45Z"/><path class="cls-4" d="M1772.06,579.92a8.3,8.3,0,0,0-4.92,10.55,8.07,8.07,0,0,0,10.36,5,8.31,8.31,0,0,0,4.92-10.55A8.08,8.08,0,0,0,1772.06,579.92Z"/><path class="cls-5" d="M1801.42,526.45a4.43,4.43,0,0,0-2.62,5.62,4.3,4.3,0,0,0,5.52,2.66,4.41,4.41,0,0,0,2.62-5.61A4.3,4.3,0,0,0,1801.42,526.45Z"/><path class="cls-6" d="M1778.13,432a4.42,4.42,0,0,0-2.62,5.62,4.3,4.3,0,0,0,5.52,2.66,4.42,4.42,0,0,0,2.62-5.62A4.29,4.29,0,0,0,1778.13,432Z"/><path class="cls-7" d="M1706.56,293.44a4.42,4.42,0,0,0-2.62,5.62,4.31,4.31,0,0,0,5.52,2.67,4.42,4.42,0,0,0,2.62-5.62A4.3,4.3,0,0,0,1706.56,293.44Z"/><path class="cls-8" d="M1731.89,478.18a4.42,4.42,0,0,0-2.62,5.62,4.3,4.3,0,0,0,5.52,2.66,4.42,4.42,0,0,0,2.62-5.62A4.3,4.3,0,0,0,1731.89,478.18Z"/></g></g></g></g></svg>