<svg xmlns="http://www.w3.org/2000/svg" xmlns:xlink="http://www.w3.org/1999/xlink" viewBox="0 0 1920 1080"><defs><style>.cls-1{isolation:isolate;}.cls-10,.cls-2,.cls-3,.cls-4,.cls-5,.cls-6,.cls-7,.cls-8,.cls-9{mix-blend-mode:color-dodge;}.cls-2{fill:url(#radial-gradient);}.cls-3{fill:url(#radial-gradient-2);}.cls-4{fill:url(#radial-gradient-3);}.cls-5{fill:url(#radial-gradient-4);}.cls-6{fill:url(#radial-gradient-5);}.cls-7{fill:url(#radial-gradient-6);}.cls-8{fill:url(#radial-gradient-7);}.cls-9{fill:url(#radial-gradient-8);}.cls-10{fill:url(#radial-gradient-9);}</style><radialGradient id="radial-gradient" cx="-3967.53" cy="-1137.35" r="6.8" gradientTransform="matrix(-1.16, -0.61, -0.6, 1.18, -3520.05, -842.59)" gradientUnits="userSpaceOnUse"><stop offset="0.27" stop-color="#ffb400"/><stop offset="0.39" stop-color="#d99900"/><stop offset="0.67" stop-color="#785500"/><stop offset="1"/></radialGradient><radialGradient id="radial-gradient-2" cx="-4044.54" cy="-1063.91" r="3.18" xlink:href="#radial-gradient"/><radialGradient id="radial-gradient-3" cx="-4189.37" cy="-978.78" r="3.31" xlink:href="#radial-gradient"/><radialGradient id="radial-gradient-4" cx="-4127.54" cy="-1083.67" r="3.31" xlink:href="#radial-gradient"/><radialGradient id="radial-gradient-5" cx="-3989.2" cy="-1171.77" r="3.31" xlink:href="#radial-gradient"/><radialGradient id="radial-gradient-6" cx="-4057.37" cy="-1168.46" r="3.31" xlink:href="#radial-gradient"/><radialGradient id="radial-gradient-7" cx="-4156.56" cy="-1004.21" r="3.31" xlink:href="#radial-gradient"/><radialGradient id="radial-gradient-8" cx="-4153.25" cy="-954.67" r="3.31" xlink:href="#radial-gradient"/><radialGradient id="radial-gradient-9" cx="-4080.85" cy="-1067.09" r="3.31" xlink:href="#radial-gradient"/></defs><title>fireflies_06Artboard 1</title><g class="cls-1"><g id="Original_Colors" data-name="Original Colors"><g id="Fireflies"><g id="fireflies_06" data-name="fireflies 06"><path class="cls-2" d="M1751.83,233.59a9.1,9.1,0,0,0,3.8,12.17,8.78,8.78,0,0,0,11.95-3.87,9.11,9.11,0,0,0-3.8-12.17A8.79,8.79,0,0,0,1751.83,233.59Z"/><path class="cls-3" d="M1801.22,369.47a4.25,4.25,0,0,0,1.78,5.69,4.1,4.1,0,0,0,5.59-1.81,4.25,4.25,0,0,0-1.78-5.69A4.1,4.1,0,0,0,1801.22,369.47Z"/><path class="cls-4" d="M1917.86,558.24a4.42,4.42,0,0,0,1.85,5.92,4.28,4.28,0,0,0,5.82-1.88,4.44,4.44,0,0,0-1.85-5.93A4.29,4.29,0,0,0,1917.86,558.24Z"/><path class="cls-5" d="M1909.1,396.75a4.45,4.45,0,0,0,1.85,5.93,4.28,4.28,0,0,0,5.82-1.89,4.42,4.42,0,0,0-1.85-5.92A4.28,4.28,0,0,0,1909.1,396.75Z"/><path class="cls-6" d="M1801.61,208.35a4.43,4.43,0,0,0,1.85,5.92,4.27,4.27,0,0,0,5.82-1.88,4.44,4.44,0,0,0-1.85-5.93A4.29,4.29,0,0,0,1801.61,208.35Z"/><path class="cls-7" d="M1878.63,253.87a4.44,4.44,0,0,0,1.85,5.93,4.28,4.28,0,0,0,5.82-1.89,4.42,4.42,0,0,0-1.85-5.92A4.27,4.27,0,0,0,1878.63,253.87Z"/><path class="cls-8" d="M1895.08,508.21a4.45,4.45,0,0,0,1.86,5.93,4.29,4.29,0,0,0,5.82-1.89,4.44,4.44,0,0,0-1.86-5.92A4.28,4.28,0,0,0,1895.08,508.21Z"/><path class="cls-9" d="M1861.55,564.63a4.44,4.44,0,0,0,1.85,5.93,4.29,4.29,0,0,0,5.82-1.89,4.43,4.43,0,0,0-1.85-5.92A4.27,4.27,0,0,0,1861.55,564.63Z"/><path class="cls-10" d="M1845.06,387.8a4.44,4.44,0,0,0,1.85,5.93,4.29,4.29,0,0,0,5.82-1.89,4.44,4.44,0,0,0-1.85-5.92A4.28,4.28,0,0,0,1845.06,387.8Z"/></g></g></g></g></svg>