<svg xmlns="http://www.w3.org/2000/svg" xmlns:xlink="http://www.w3.org/1999/xlink" viewBox="0 0 1920 1080"><defs><style>.cls-1{isolation:isolate;}.cls-10,.cls-11,.cls-12,.cls-13,.cls-14,.cls-15,.cls-16,.cls-17,.cls-2,.cls-3,.cls-4,.cls-5,.cls-6,.cls-7,.cls-8,.cls-9{mix-blend-mode:color-dodge;}.cls-2{fill:url(#radial-gradient);}.cls-3{fill:url(#radial-gradient-2);}.cls-4{fill:url(#radial-gradient-3);}.cls-5{fill:url(#radial-gradient-4);}.cls-6{fill:url(#radial-gradient-5);}.cls-7{fill:url(#radial-gradient-6);}.cls-8{fill:url(#radial-gradient-7);}.cls-9{fill:url(#radial-gradient-8);}.cls-10{fill:url(#radial-gradient-9);}.cls-11{fill:url(#radial-gradient-10);}.cls-12{fill:url(#radial-gradient-11);}.cls-13{fill:url(#radial-gradient-12);}.cls-14{fill:url(#radial-gradient-13);}.cls-15{fill:url(#radial-gradient-14);}.cls-16{fill:url(#radial-gradient-15);}.cls-17{fill:url(#radial-gradient-16);}</style><radialGradient id="radial-gradient" cx="2319.08" cy="-746.89" r="6.8" gradientTransform="matrix(1.23, -0.45, -0.44, -1.25, -2155.99, 178.25)" gradientUnits="userSpaceOnUse"><stop offset="0.27" stop-color="#ffb400"/><stop offset="0.39" stop-color="#d99900"/><stop offset="0.67" stop-color="#785500"/><stop offset="1"/></radialGradient><radialGradient id="radial-gradient-2" cx="2205.74" cy="-721.76" r="6.22" xlink:href="#radial-gradient"/><radialGradient id="radial-gradient-3" cx="2015.98" cy="-693.21" r="6.22" xlink:href="#radial-gradient"/><radialGradient id="radial-gradient-4" cx="2104.2" cy="-674.71" r="3.31" xlink:href="#radial-gradient"/><radialGradient id="radial-gradient-5" cx="2029.38" cy="-640.39" r="3.31" xlink:href="#radial-gradient"/><radialGradient id="radial-gradient-6" cx="2040.96" cy="-731.59" r="3.31" xlink:href="#radial-gradient"/><radialGradient id="radial-gradient-7" cx="2009.77" cy="-806.38" r="3.31" xlink:href="#radial-gradient"/><radialGradient id="radial-gradient-8" cx="2159.04" cy="-693.2" r="3.31" xlink:href="#radial-gradient"/><radialGradient id="radial-gradient-9" cx="2069.09" cy="-668.09" r="3.31" xlink:href="#radial-gradient"/><radialGradient id="radial-gradient-10" cx="2297.41" cy="-781.31" r="3.31" xlink:href="#radial-gradient"/><radialGradient id="radial-gradient-11" cx="2229.23" cy="-778" r="3.31" xlink:href="#radial-gradient"/><radialGradient id="radial-gradient-12" cx="2152.72" cy="-803.47" r="3.31" xlink:href="#radial-gradient"/><radialGradient id="radial-gradient-13" cx="2081.53" cy="-708.15" r="3.31" xlink:href="#radial-gradient"/><radialGradient id="radial-gradient-14" cx="2277.55" cy="-703.9" r="3.31" xlink:href="#radial-gradient"/><radialGradient id="radial-gradient-15" cx="2205.74" cy="-676.62" r="3.31" xlink:href="#radial-gradient"/><radialGradient id="radial-gradient-16" cx="2255.53" cy="-707.21" r="3.31" xlink:href="#radial-gradient"/></defs><title>fireflies_10Artboard 1</title><g class="cls-1"><g id="Original_Colors" data-name="Original Colors"><g id="Fireflies"><g id="fireflies_10" data-name="fireflies 10"><path class="cls-2" d="M1029.36,75.34A8.83,8.83,0,0,0,1018,69.87a9.09,9.09,0,0,0-5.38,11.54A8.83,8.83,0,0,0,1024,86.88,9.07,9.07,0,0,0,1029.36,75.34Z"/><path class="cls-3" d="M878.36,94.71a8.07,8.07,0,0,0-10.36-5,8.29,8.29,0,0,0-4.91,10.55,8.07,8.07,0,0,0,10.36,5A8.29,8.29,0,0,0,878.36,94.71Z"/><path class="cls-4" d="M632.66,143.62a8.07,8.07,0,0,0-10.36-5,8.29,8.29,0,0,0-4.91,10.55,8.07,8.07,0,0,0,10.36,5A8.29,8.29,0,0,0,632.66,143.62Z"/><path class="cls-5" d="M729.4,82.43a4.29,4.29,0,0,0-5.52-2.66,4.42,4.42,0,0,0-2.62,5.61,4.31,4.31,0,0,0,5.52,2.67A4.42,4.42,0,0,0,729.4,82.43Z"/><path class="cls-6" d="M622.42,72.86a4.28,4.28,0,0,0-5.51-2.66,4.41,4.41,0,0,0-2.62,5.61,4.3,4.3,0,0,0,5.52,2.67A4.42,4.42,0,0,0,622.42,72.86Z"/><path class="cls-7" d="M676.61,181.79a4.3,4.3,0,0,0-5.52-2.66,4.42,4.42,0,0,0-2.62,5.62,4.3,4.3,0,0,0,5.52,2.66A4.42,4.42,0,0,0,676.61,181.79Z"/><path class="cls-8" d="M671,289.29a4.3,4.3,0,0,0-5.51-2.67,4.42,4.42,0,0,0-2.62,5.62,4.29,4.29,0,0,0,5.52,2.66A4.4,4.4,0,0,0,671,289.29Z"/><path class="cls-9" d="M804.89,81.1a4.3,4.3,0,0,0-5.52-2.66,4.42,4.42,0,0,0-2.61,5.62,4.29,4.29,0,0,0,5.51,2.66A4.42,4.42,0,0,0,804.89,81.1Z"/><path class="cls-10" d="M683.36,89.81a4.3,4.3,0,0,0-5.52-2.67,4.42,4.42,0,0,0-2.62,5.62,4.29,4.29,0,0,0,5.52,2.66A4.41,4.41,0,0,0,683.36,89.81Z"/><path class="cls-11" d="M1013.53,129.63A4.3,4.3,0,0,0,1008,127a4.42,4.42,0,0,0-2.62,5.62,4.29,4.29,0,0,0,5.52,2.66A4.41,4.41,0,0,0,1013.53,129.63Z"/><path class="cls-12" d="M928.29,155.9a4.3,4.3,0,0,0-5.52-2.67,4.42,4.42,0,0,0-2.61,5.62,4.3,4.3,0,0,0,5.51,2.67A4.42,4.42,0,0,0,928.29,155.9Z"/><path class="cls-13" d="M845.44,221.89a4.3,4.3,0,0,0-5.52-2.67,4.42,4.42,0,0,0-2.62,5.62,4.29,4.29,0,0,0,5.52,2.66A4.41,4.41,0,0,0,845.44,221.89Z"/><path class="cls-14" d="M716.19,134.38a4.3,4.3,0,0,0-5.52-2.66,4.42,4.42,0,0,0-2.62,5.62,4.31,4.31,0,0,0,5.52,2.66A4.42,4.42,0,0,0,716.19,134.38Z"/><path class="cls-15" d="M955.2,41.64A4.29,4.29,0,0,0,949.69,39a4.42,4.42,0,0,0-2.62,5.62,4.29,4.29,0,0,0,5.52,2.66A4.4,4.4,0,0,0,955.2,41.64Z"/><path class="cls-16" d="M855,39.54a4.29,4.29,0,0,0-5.51-2.67,4.42,4.42,0,0,0-2.62,5.62,4.29,4.29,0,0,0,5.52,2.66A4.4,4.4,0,0,0,855,39.54Z"/><path class="cls-17" d="M929.6,55.6a4.31,4.31,0,0,0-5.52-2.67,4.42,4.42,0,0,0-2.62,5.62A4.3,4.3,0,0,0,927,61.22,4.42,4.42,0,0,0,929.6,55.6Z"/></g></g></g></g></svg>