<svg xmlns="http://www.w3.org/2000/svg" xmlns:xlink="http://www.w3.org/1999/xlink" viewBox="0 0 1920 1080"><defs><style>.cls-1{isolation:isolate;}.cls-10,.cls-11,.cls-12,.cls-13,.cls-14,.cls-15,.cls-16,.cls-17,.cls-18,.cls-19,.cls-2,.cls-20,.cls-21,.cls-22,.cls-23,.cls-24,.cls-3,.cls-4,.cls-5,.cls-6,.cls-7,.cls-8,.cls-9{mix-blend-mode:color-dodge;}.cls-2{fill:url(#radial-gradient);}.cls-3{fill:url(#radial-gradient-2);}.cls-4{fill:url(#radial-gradient-3);}.cls-5{fill:url(#radial-gradient-4);}.cls-6{fill:url(#radial-gradient-5);}.cls-7{fill:url(#radial-gradient-6);}.cls-8{fill:url(#radial-gradient-7);}.cls-9{fill:url(#radial-gradient-8);}.cls-10{fill:url(#radial-gradient-9);}.cls-11{fill:url(#radial-gradient-10);}.cls-12{fill:url(#radial-gradient-11);}.cls-13{fill:url(#radial-gradient-12);}.cls-14{fill:url(#radial-gradient-13);}.cls-15{fill:url(#radial-gradient-14);}.cls-16{fill:url(#radial-gradient-15);}.cls-17{fill:url(#radial-gradient-16);}.cls-18{fill:url(#radial-gradient-17);}.cls-19{fill:url(#radial-gradient-18);}.cls-20{fill:url(#radial-gradient-19);}.cls-21{fill:url(#radial-gradient-20);}.cls-22{fill:url(#radial-gradient-21);}.cls-23{fill:url(#radial-gradient-22);}.cls-24{fill:url(#radial-gradient-23);}</style><radialGradient id="radial-gradient" cx="2306.15" cy="-2616.89" r="6.8" gradientTransform="matrix(0.88, -0.98, -0.96, -0.9, -2974.72, -9.42)" gradientUnits="userSpaceOnUse"><stop offset="0.27" stop-color="#ffb400"/><stop offset="0.39" stop-color="#d99900"/><stop offset="0.67" stop-color="#785500"/><stop offset="1"/></radialGradient><radialGradient id="radial-gradient-2" cx="2229.14" cy="-2543.44" r="3.18" xlink:href="#radial-gradient"/><radialGradient id="radial-gradient-3" cx="2192.82" cy="-2591.76" r="6.22" xlink:href="#radial-gradient"/><radialGradient id="radial-gradient-4" cx="2014.64" cy="-2395.16" r="6.22" xlink:href="#radial-gradient"/><radialGradient id="radial-gradient-5" cx="2021.05" cy="-2482.48" r="6.22" xlink:href="#radial-gradient"/><radialGradient id="radial-gradient-6" cx="2003.07" cy="-2563.19" r="6.22" xlink:href="#radial-gradient"/><radialGradient id="radial-gradient-7" cx="2091.29" cy="-2544.7" r="3.31" xlink:href="#radial-gradient"/><radialGradient id="radial-gradient-8" cx="2084.3" cy="-2458.29" r="3.31" xlink:href="#radial-gradient"/><radialGradient id="radial-gradient-9" cx="2016.47" cy="-2510.37" r="3.31" xlink:href="#radial-gradient"/><radialGradient id="radial-gradient-10" cx="2028.04" cy="-2601.57" r="3.31" xlink:href="#radial-gradient"/><radialGradient id="radial-gradient-11" cx="2110.48" cy="-2628.03" r="3.31" xlink:href="#radial-gradient"/><radialGradient id="radial-gradient-12" cx="2146.12" cy="-2563.19" r="3.31" xlink:href="#radial-gradient"/><radialGradient id="radial-gradient-13" cx="2056.18" cy="-2538.08" r="3.31" xlink:href="#radial-gradient"/><radialGradient id="radial-gradient-14" cx="2284.48" cy="-2651.31" r="3.31" xlink:href="#radial-gradient"/><radialGradient id="radial-gradient-15" cx="2216.3" cy="-2648" r="3.31" xlink:href="#radial-gradient"/><radialGradient id="radial-gradient-16" cx="2146.12" cy="-2614.69" r="3.31" xlink:href="#radial-gradient"/><radialGradient id="radial-gradient-17" cx="2139.79" cy="-2673.46" r="3.31" xlink:href="#radial-gradient"/><radialGradient id="radial-gradient-18" cx="2068.61" cy="-2578.14" r="3.31" xlink:href="#radial-gradient"/><radialGradient id="radial-gradient-19" cx="2117.11" cy="-2483.72" r="3.31" xlink:href="#radial-gradient"/><radialGradient id="radial-gradient-20" cx="2120.42" cy="-2434.19" r="3.31" xlink:href="#radial-gradient"/><radialGradient id="radial-gradient-21" cx="2264.63" cy="-2573.9" r="3.31" xlink:href="#radial-gradient"/><radialGradient id="radial-gradient-22" cx="2192.82" cy="-2546.62" r="3.31" xlink:href="#radial-gradient"/><radialGradient id="radial-gradient-23" cx="2242.61" cy="-2577.21" r="3.31" xlink:href="#radial-gradient"/></defs><title>fireflies_01Artboard 1</title><g class="cls-1"><g id="Original_Colors" data-name="Original Colors"><g id="Fireflies"><g id="fireflies_01" data-name="fireflies 01"><path class="cls-2" d="M1581.36,63.26a8.76,8.76,0,0,0-12.53.59,9.14,9.14,0,0,0,.58,12.75,8.75,8.75,0,0,0,12.53-.58A9.15,9.15,0,0,0,1581.36,63.26Z"/><path class="cls-3" d="M1439.66,76.63a4.09,4.09,0,0,0-5.86.28,4.27,4.27,0,0,0,.27,6,4.09,4.09,0,0,0,5.86-.28A4.27,4.27,0,0,0,1439.66,76.63Z"/><path class="cls-4" d="M1457,152.55a8,8,0,0,0-11.46.53,8.37,8.37,0,0,0,.53,11.67,8,8,0,0,0,11.45-.54A8.35,8.35,0,0,0,1457,152.55Z"/><path class="cls-5" d="M1110.82,151.42a8,8,0,0,0-11.46.54,8.35,8.35,0,0,0,.53,11.66,8,8,0,0,0,11.45-.54A8.35,8.35,0,0,0,1110.82,151.42Z"/><path class="cls-6" d="M1200.62,223.3a8,8,0,0,0-11.45.53,8.37,8.37,0,0,0,.52,11.67,8,8,0,0,0,11.46-.54A8.35,8.35,0,0,0,1200.62,223.3Z"/><path class="cls-7" d="M1262.61,313.18a8,8,0,0,0-11.46.54,8.35,8.35,0,0,0,.53,11.66,8,8,0,0,0,11.45-.53A8.37,8.37,0,0,0,1262.61,313.18Z"/><path class="cls-8" d="M1319.79,212.91a4.26,4.26,0,0,0-6.1.29,4.45,4.45,0,0,0,.28,6.21,4.26,4.26,0,0,0,6.1-.29A4.45,4.45,0,0,0,1319.79,212.91Z"/><path class="cls-9" d="M1230.36,142.43a4.26,4.26,0,0,0-6.1.29,4.45,4.45,0,0,0,.28,6.21,4.26,4.26,0,0,0,6.1-.29A4.45,4.45,0,0,0,1230.36,142.43Z"/><path class="cls-10" d="M1220.93,255.6a4.26,4.26,0,0,0-6.1.29,4.45,4.45,0,0,0,.28,6.21,4.26,4.26,0,0,0,6.1-.29A4.45,4.45,0,0,0,1220.93,255.6Z"/><path class="cls-11" d="M1319,325.88a4.26,4.26,0,0,0-6.1.28,4.46,4.46,0,0,0,.28,6.22,4.27,4.27,0,0,0,6.1-.29A4.45,4.45,0,0,0,1319,325.88Z"/><path class="cls-12" d="M1417,268.67a4.26,4.26,0,0,0-6.1.29,4.44,4.44,0,0,0,.28,6.21,4.26,4.26,0,0,0,6.1-.29A4.46,4.46,0,0,0,1417,268.67Z"/><path class="cls-13" d="M1385.83,175.65a4.26,4.26,0,0,0-6.1.29,4.46,4.46,0,0,0,.28,6.21,4.26,4.26,0,0,0,6.1-.29A4.44,4.44,0,0,0,1385.83,175.65Z"/><path class="cls-14" d="M1282.55,241.43a4.28,4.28,0,0,0-6.11.29,4.46,4.46,0,0,0,.28,6.21,4.28,4.28,0,0,0,6.11-.28A4.47,4.47,0,0,0,1282.55,241.43Z"/><path class="cls-15" d="M1592.42,118.76a4.26,4.26,0,0,0-6.1.28,4.45,4.45,0,0,0,.28,6.21,4.26,4.26,0,0,0,6.1-.28A4.45,4.45,0,0,0,1592.42,118.76Z"/><path class="cls-16" d="M1529.28,182.7a4.26,4.26,0,0,0-6.1.28,4.46,4.46,0,0,0,.28,6.22,4.26,4.26,0,0,0,6.1-.29A4.45,4.45,0,0,0,1529.28,182.7Z"/><path class="cls-17" d="M1435.47,221.75a4.26,4.26,0,0,0-6.1.29,4.45,4.45,0,0,0,.28,6.21,4.26,4.26,0,0,0,6.1-.29A4.45,4.45,0,0,0,1435.47,221.75Z"/><path class="cls-18" d="M1486.56,280.57a4.26,4.26,0,0,0-6.1.28,4.45,4.45,0,0,0,.28,6.21,4.26,4.26,0,0,0,6.1-.28A4.45,4.45,0,0,0,1486.56,280.57Z"/><path class="cls-19" d="M1332.09,265.1a4.26,4.26,0,0,0-6.1.28,4.45,4.45,0,0,0,.28,6.21,4.26,4.26,0,0,0,6.1-.28A4.45,4.45,0,0,0,1332.09,265.1Z"/><path class="cls-20" d="M1283.72,133a4.27,4.27,0,0,0-6.1.29,4.45,4.45,0,0,0,.28,6.21,4.26,4.26,0,0,0,6.1-.28A4.46,4.46,0,0,0,1283.72,133Z"/><path class="cls-21" d="M1238.88,85.4a4.26,4.26,0,0,0-6.1.29,4.45,4.45,0,0,0,.28,6.21,4.26,4.26,0,0,0,6.1-.29A4.45,4.45,0,0,0,1238.88,85.4Z"/><path class="cls-22" d="M1500.34,69a4.26,4.26,0,0,0-6.1.29,4.45,4.45,0,0,0,.28,6.21,4.26,4.26,0,0,0,6.1-.29A4.45,4.45,0,0,0,1500.34,69Z"/><path class="cls-23" d="M1410.91,115a4.26,4.26,0,0,0-6.1.29,4.46,4.46,0,0,0,.28,6.21,4.26,4.26,0,0,0,6.1-.29A4.44,4.44,0,0,0,1410.91,115Z"/><path class="cls-24" d="M1484.17,93.52a4.26,4.26,0,0,0-6.1.29,4.45,4.45,0,0,0,.28,6.21,4.26,4.26,0,0,0,6.1-.29A4.45,4.45,0,0,0,1484.17,93.52Z"/></g></g></g></g></svg>