<svg xmlns="http://www.w3.org/2000/svg" xmlns:xlink="http://www.w3.org/1999/xlink" viewBox="0 0 1920 1080"><defs><style>.cls-1{isolation:isolate;}.cls-10,.cls-11,.cls-12,.cls-13,.cls-2,.cls-3,.cls-4,.cls-5,.cls-6,.cls-7,.cls-8,.cls-9{mix-blend-mode:color-dodge;}.cls-2{fill:url(#radial-gradient);}.cls-3{fill:url(#radial-gradient-2);}.cls-4{fill:url(#radial-gradient-3);}.cls-5{fill:url(#radial-gradient-4);}.cls-6{fill:url(#radial-gradient-5);}.cls-7{fill:url(#radial-gradient-6);}.cls-8{fill:url(#radial-gradient-7);}.cls-9{fill:url(#radial-gradient-8);}.cls-10{fill:url(#radial-gradient-9);}.cls-11{fill:url(#radial-gradient-10);}.cls-12{fill:url(#radial-gradient-11);}.cls-13{fill:url(#radial-gradient-12);}</style><radialGradient id="radial-gradient" cx="-3382.28" cy="-810.38" r="6.8" gradientTransform="matrix(-1.33, 0.18, -0.07, -1.3, -3649.59, 222.27)" gradientUnits="userSpaceOnUse"><stop offset="0.27" stop-color="#ffb400"/><stop offset="0.39" stop-color="#d99900"/><stop offset="0.67" stop-color="#785500"/><stop offset="1"/></radialGradient><radialGradient id="radial-gradient-2" cx="-3459.29" cy="-736.92" r="3.18" xlink:href="#radial-gradient"/><radialGradient id="radial-gradient-3" cx="-3495.61" cy="-785.24" r="6.22" xlink:href="#radial-gradient"/><radialGradient id="radial-gradient-4" cx="-3577.95" cy="-821.52" r="3.31" xlink:href="#radial-gradient"/><radialGradient id="radial-gradient-5" cx="-3542.31" cy="-756.68" r="3.31" xlink:href="#radial-gradient"/><radialGradient id="radial-gradient-6" cx="-3403.94" cy="-844.79" r="3.31" xlink:href="#radial-gradient"/><radialGradient id="radial-gradient-7" cx="-3472.13" cy="-841.48" r="3.31" xlink:href="#radial-gradient"/><radialGradient id="radial-gradient-8" cx="-3542.3" cy="-808.18" r="3.31" xlink:href="#radial-gradient"/><radialGradient id="radial-gradient-9" cx="-3548.63" cy="-866.95" r="3.31" xlink:href="#radial-gradient"/><radialGradient id="radial-gradient-10" cx="-3423.8" cy="-767.38" r="3.31" xlink:href="#radial-gradient"/><radialGradient id="radial-gradient-11" cx="-3495.61" cy="-740.1" r="3.31" xlink:href="#radial-gradient"/><radialGradient id="radial-gradient-12" cx="-3445.82" cy="-770.69" r="3.31" xlink:href="#radial-gradient"/></defs><title>fireflies_02Artboard 1</title><g class="cls-1"><g id="Original_Colors" data-name="Original Colors"><g id="Fireflies"><g id="fireflies_02" data-name="fireflies 02"><path class="cls-2" d="M892.82,680.41a9.81,9.81,0,0,1,8.53-10,8.19,8.19,0,0,1,9.53,7.61,9.82,9.82,0,0,1-8.54,10A8.18,8.18,0,0,1,892.82,680.41Z"/><path class="cls-3" d="M994.58,571.15a4.59,4.59,0,0,1,4-4.68A3.83,3.83,0,0,1,1003,570a4.59,4.59,0,0,1-4,4.68A3.83,3.83,0,0,1,994.58,571.15Z"/><path class="cls-4" d="M1042.3,627.9a9,9,0,0,1,7.8-9.14,7.49,7.49,0,0,1,8.71,7,9,9,0,0,1-7.8,9.14A7.49,7.49,0,0,1,1042.3,627.9Z"/><path class="cls-5" d="M1158.16,660a4.79,4.79,0,0,1,4.16-4.87,4,4,0,0,1,4.63,3.71,4.77,4.77,0,0,1-4.15,4.86A4,4,0,0,1,1158.16,660Z"/><path class="cls-6" d="M1106.11,582.22a4.77,4.77,0,0,1,4.15-4.87,4,4,0,0,1,4.64,3.71,4.78,4.78,0,0,1-4.16,4.86A4,4,0,0,1,1106.11,582.22Z"/><path class="cls-7" d="M928.74,720.57a4.78,4.78,0,0,1,4.15-4.87,4,4,0,0,1,4.64,3.71,4.79,4.79,0,0,1-4.16,4.87A4,4,0,0,1,928.74,720.57Z"/><path class="cls-8" d="M1019.06,704.34a4.77,4.77,0,0,1,4.15-4.87,4,4,0,0,1,4.64,3.71,4.79,4.79,0,0,1-4.16,4.87A4,4,0,0,1,1019.06,704.34Z"/><path class="cls-9" d="M1109.85,648.91A4.79,4.79,0,0,1,1114,644a4,4,0,0,1,4.63,3.71,4.77,4.77,0,0,1-4.15,4.87A4,4,0,0,1,1109.85,648.91Z"/><path class="cls-10" d="M1122.52,723.92a4.79,4.79,0,0,1,4.16-4.87,4,4,0,0,1,4.64,3.71,4.78,4.78,0,0,1-4.16,4.86A4,4,0,0,1,1122.52,723.92Z"/><path class="cls-11" d="M949.49,616.84a4.77,4.77,0,0,1,4.15-4.87,4,4,0,0,1,4.64,3.71,4.79,4.79,0,0,1-4.16,4.87A4,4,0,0,1,949.49,616.84Z"/><path class="cls-12" d="M1042.87,568.93a4.79,4.79,0,0,1,4.16-4.87,4,4,0,0,1,4.64,3.71,4.79,4.79,0,0,1-4.16,4.87A4,4,0,0,1,1042.87,568.93Z"/><path class="cls-13" d="M979,617.27a4.79,4.79,0,0,1,4.16-4.87,4,4,0,0,1,4.64,3.71,4.78,4.78,0,0,1-4.16,4.86A4,4,0,0,1,979,617.27Z"/></g></g></g></g></svg>