<svg xmlns="http://www.w3.org/2000/svg" xmlns:xlink="http://www.w3.org/1999/xlink" viewBox="0 0 1920 1080"><defs><style>.cls-1{isolation:isolate;}.cls-10,.cls-11,.cls-12,.cls-13,.cls-2,.cls-3,.cls-4,.cls-5,.cls-6,.cls-7,.cls-8,.cls-9{mix-blend-mode:color-dodge;}.cls-2{fill:url(#radial-gradient);}.cls-3{fill:url(#radial-gradient-2);}.cls-4{fill:url(#radial-gradient-3);}.cls-5{fill:url(#radial-gradient-4);}.cls-6{fill:url(#radial-gradient-5);}.cls-7{fill:url(#radial-gradient-6);}.cls-8{fill:url(#radial-gradient-7);}.cls-9{fill:url(#radial-gradient-8);}.cls-10{fill:url(#radial-gradient-9);}.cls-11{fill:url(#radial-gradient-10);}.cls-12{fill:url(#radial-gradient-11);}.cls-13{fill:url(#radial-gradient-12);}</style><radialGradient id="radial-gradient" cx="1804.09" cy="-576.65" r="3.18" gradientTransform="matrix(1.23, -0.45, -0.44, -1.25, -2155.99, 178.25)" gradientUnits="userSpaceOnUse"><stop offset="0.27" stop-color="#ffb400"/><stop offset="0.39" stop-color="#d99900"/><stop offset="0.67" stop-color="#785500"/><stop offset="1"/></radialGradient><radialGradient id="radial-gradient-2" cx="1631.13" cy="-703.38" r="6.22" xlink:href="#radial-gradient"/><radialGradient id="radial-gradient-3" cx="1584.23" cy="-491.52" r="6.22" xlink:href="#radial-gradient"/><radialGradient id="radial-gradient-4" cx="1591.42" cy="-543.61" r="3.31" xlink:href="#radial-gradient"/><radialGradient id="radial-gradient-5" cx="1685.43" cy="-661.26" r="3.31" xlink:href="#radial-gradient"/><radialGradient id="radial-gradient-6" cx="1721.08" cy="-596.42" r="3.31" xlink:href="#radial-gradient"/><radialGradient id="radial-gradient-7" cx="1631.13" cy="-571.31" r="3.31" xlink:href="#radial-gradient"/><radialGradient id="radial-gradient-8" cx="1714.75" cy="-706.69" r="3.31" xlink:href="#radial-gradient"/><radialGradient id="radial-gradient-9" cx="1692.05" cy="-516.95" r="3.31" xlink:href="#radial-gradient"/><radialGradient id="radial-gradient-10" cx="1695.36" cy="-467.41" r="3.31" xlink:href="#radial-gradient"/><radialGradient id="radial-gradient-11" cx="1767.77" cy="-579.84" r="3.31" xlink:href="#radial-gradient"/><radialGradient id="radial-gradient-12" cx="1817.56" cy="-610.43" r="3.31" xlink:href="#radial-gradient"/></defs><title>fireflies_11Artboard 1</title><g class="cls-1"><g id="Original_Colors" data-name="Original Colors"><g id="Fireflies"><g id="fireflies_11" data-name="fireflies 11"><path class="cls-2" d="M317.5,93.66a4.13,4.13,0,0,0-5.31-2.56,4.25,4.25,0,0,0-2.52,5.4A4.14,4.14,0,0,0,315,99.06,4.25,4.25,0,0,0,317.5,93.66Z"/><path class="cls-3" d="M164.21,328a8.08,8.08,0,0,0-10.36-5,8.3,8.3,0,0,0-4.92,10.55,8.07,8.07,0,0,0,10.36,5A8.31,8.31,0,0,0,164.21,328Z"/><path class="cls-4" d="M13.75,83.86a8.06,8.06,0,0,0-10.36-5A8.29,8.29,0,0,0-1.53,89.4a8.08,8.08,0,0,0,10.37,5A8.31,8.31,0,0,0,13.75,83.86Z"/><path class="cls-5" d="M41.83,147.11a4.3,4.3,0,0,0-5.52-2.67,4.42,4.42,0,0,0-2.61,5.62,4.3,4.3,0,0,0,5.51,2.67A4.42,4.42,0,0,0,41.83,147.11Z"/><path class="cls-6" d="M208.91,252.37a4.3,4.3,0,0,0-5.52-2.66,4.42,4.42,0,0,0-2.61,5.62A4.3,4.3,0,0,0,206.3,258,4.42,4.42,0,0,0,208.91,252.37Z"/><path class="cls-7" d="M224.3,155.35a4.29,4.29,0,0,0-5.52-2.66,4.42,4.42,0,0,0-2.62,5.62,4.31,4.31,0,0,0,5.52,2.66A4.42,4.42,0,0,0,224.3,155.35Z"/><path class="cls-8" d="M102.77,164.05a4.3,4.3,0,0,0-5.52-2.66A4.42,4.42,0,0,0,94.63,167a4.3,4.3,0,0,0,5.52,2.66A4.42,4.42,0,0,0,102.77,164.05Z"/><path class="cls-9" d="M264.85,296.13a4.31,4.31,0,0,0-5.52-2.66,4.42,4.42,0,0,0-2.62,5.62,4.3,4.3,0,0,0,5.52,2.66A4.42,4.42,0,0,0,264.85,296.13Z"/><path class="cls-10" d="M153.82,68.87a4.3,4.3,0,0,0-5.52-2.66,4.42,4.42,0,0,0-2.62,5.62,4.3,4.3,0,0,0,5.52,2.66A4.42,4.42,0,0,0,153.82,68.87Z"/><path class="cls-11" d="M136.18,5.42a4.3,4.3,0,0,0-5.52-2.67,4.42,4.42,0,0,0-2.61,5.62A4.3,4.3,0,0,0,133.56,11,4.42,4.42,0,0,0,136.18,5.42Z"/><path class="cls-12" d="M274.42,113.78a4.3,4.3,0,0,0-5.52-2.66,4.42,4.42,0,0,0-2.61,5.62,4.29,4.29,0,0,0,5.51,2.66A4.42,4.42,0,0,0,274.42,113.78Z"/><path class="cls-13" d="M349,129.85a4.3,4.3,0,0,0-5.51-2.67,4.42,4.42,0,0,0-2.62,5.62,4.29,4.29,0,0,0,5.52,2.66A4.41,4.41,0,0,0,349,129.85Z"/></g></g></g></g></svg>