<svg xmlns="http://www.w3.org/2000/svg" xmlns:xlink="http://www.w3.org/1999/xlink" viewBox="0 0 1920 1080"><defs><style>.cls-1{isolation:isolate;}.cls-10,.cls-11,.cls-12,.cls-13,.cls-2,.cls-3,.cls-4,.cls-5,.cls-6,.cls-7,.cls-8,.cls-9{mix-blend-mode:color-dodge;}.cls-2{fill:url(#radial-gradient);}.cls-3{fill:url(#radial-gradient-2);}.cls-4{fill:url(#radial-gradient-3);}.cls-5{fill:url(#radial-gradient-4);}.cls-6{fill:url(#radial-gradient-5);}.cls-7{fill:url(#radial-gradient-6);}.cls-8{fill:url(#radial-gradient-7);}.cls-9{fill:url(#radial-gradient-8);}.cls-10{fill:url(#radial-gradient-9);}.cls-11{fill:url(#radial-gradient-10);}.cls-12{fill:url(#radial-gradient-11);}.cls-13{fill:url(#radial-gradient-12);}</style><radialGradient id="radial-gradient" cx="2901.18" cy="-1048.01" r="3.18" gradientTransform="matrix(1.23, -0.45, -0.44, -1.25, -2155.99, 178.25)" gradientUnits="userSpaceOnUse"><stop offset="0.27" stop-color="#ffb400"/><stop offset="0.39" stop-color="#d99900"/><stop offset="0.67" stop-color="#785500"/><stop offset="1"/></radialGradient><radialGradient id="radial-gradient-2" cx="2728.22" cy="-1174.74" r="6.22" xlink:href="#radial-gradient"/><radialGradient id="radial-gradient-3" cx="2681.31" cy="-962.88" r="6.22" xlink:href="#radial-gradient"/><radialGradient id="radial-gradient-4" cx="2688.5" cy="-1014.96" r="3.31" xlink:href="#radial-gradient"/><radialGradient id="radial-gradient-5" cx="2782.52" cy="-1132.62" r="3.31" xlink:href="#radial-gradient"/><radialGradient id="radial-gradient-6" cx="2818.16" cy="-1067.77" r="3.31" xlink:href="#radial-gradient"/><radialGradient id="radial-gradient-7" cx="2728.21" cy="-1042.66" r="3.31" xlink:href="#radial-gradient"/><radialGradient id="radial-gradient-8" cx="2811.84" cy="-1178.05" r="3.31" xlink:href="#radial-gradient"/><radialGradient id="radial-gradient-9" cx="2789.14" cy="-988.3" r="3.31" xlink:href="#radial-gradient"/><radialGradient id="radial-gradient-10" cx="2792.45" cy="-938.76" r="3.31" xlink:href="#radial-gradient"/><radialGradient id="radial-gradient-11" cx="2864.86" cy="-1051.19" r="3.31" xlink:href="#radial-gradient"/><radialGradient id="radial-gradient-12" cx="2914.65" cy="-1081.78" r="3.31" xlink:href="#radial-gradient"/></defs><title>fireflies_12Artboard 1</title><g class="cls-1"><g id="Original_Colors" data-name="Original Colors"><g id="Fireflies"><g id="fireflies_12" data-name="fireflies 12"><path class="cls-2" d="M1872.14,194.07a4.13,4.13,0,0,0-5.3-2.56,4.25,4.25,0,0,0-2.52,5.4,4.13,4.13,0,0,0,5.31,2.56A4.24,4.24,0,0,0,1872.14,194.07Z"/><path class="cls-3" d="M1718.86,428.41a8.08,8.08,0,0,0-10.37-5,8.29,8.29,0,0,0-4.91,10.55,8.07,8.07,0,0,0,10.36,5A8.3,8.3,0,0,0,1718.86,428.41Z"/><path class="cls-4" d="M1568.4,184.27a8.07,8.07,0,0,0-10.36-5,8.3,8.3,0,0,0-4.92,10.55,8.08,8.08,0,0,0,10.36,5A8.3,8.3,0,0,0,1568.4,184.27Z"/><path class="cls-5" d="M1596.48,247.52a4.29,4.29,0,0,0-5.52-2.66,4.42,4.42,0,0,0-2.62,5.61,4.31,4.31,0,0,0,5.52,2.67A4.42,4.42,0,0,0,1596.48,247.52Z"/><path class="cls-6" d="M1763.56,352.79a4.3,4.3,0,0,0-5.52-2.67,4.42,4.42,0,0,0-2.61,5.62,4.28,4.28,0,0,0,5.51,2.66A4.41,4.41,0,0,0,1763.56,352.79Z"/><path class="cls-7" d="M1779,255.76a4.3,4.3,0,0,0-5.52-2.66,4.42,4.42,0,0,0-2.62,5.62,4.3,4.3,0,0,0,5.52,2.66A4.42,4.42,0,0,0,1779,255.76Z"/><path class="cls-8" d="M1657.42,264.47a4.31,4.31,0,0,0-5.52-2.67,4.42,4.42,0,0,0-2.62,5.62,4.29,4.29,0,0,0,5.52,2.66A4.41,4.41,0,0,0,1657.42,264.47Z"/><path class="cls-9" d="M1819.49,396.55a4.3,4.3,0,0,0-5.51-2.67,4.42,4.42,0,0,0-2.62,5.62,4.29,4.29,0,0,0,5.52,2.66A4.4,4.4,0,0,0,1819.49,396.55Z"/><path class="cls-10" d="M1708.47,169.29a4.3,4.3,0,0,0-5.52-2.67,4.42,4.42,0,0,0-2.62,5.62,4.29,4.29,0,0,0,5.52,2.66A4.41,4.41,0,0,0,1708.47,169.29Z"/><path class="cls-11" d="M1690.83,105.83a4.29,4.29,0,0,0-5.52-2.66,4.41,4.41,0,0,0-2.62,5.61,4.31,4.31,0,0,0,5.52,2.67A4.42,4.42,0,0,0,1690.83,105.83Z"/><path class="cls-12" d="M1829.07,214.19a4.3,4.3,0,0,0-5.52-2.66,4.43,4.43,0,0,0-2.62,5.62,4.31,4.31,0,0,0,5.52,2.66A4.42,4.42,0,0,0,1829.07,214.19Z"/><path class="cls-13" d="M1903.65,230.26a4.3,4.3,0,0,0-5.52-2.67,4.42,4.42,0,0,0-2.61,5.62,4.3,4.3,0,0,0,5.51,2.67A4.42,4.42,0,0,0,1903.65,230.26Z"/></g></g></g></g></svg>