<svg xmlns="http://www.w3.org/2000/svg" xmlns:xlink="http://www.w3.org/1999/xlink" viewBox="0 0 1920 1080"><defs><style>.cls-1{isolation:isolate;}.cls-10,.cls-11,.cls-12,.cls-13,.cls-14,.cls-15,.cls-16,.cls-17,.cls-2,.cls-3,.cls-4,.cls-5,.cls-6,.cls-7,.cls-8,.cls-9{mix-blend-mode:color-dodge;}.cls-2{fill:url(#radial-gradient);}.cls-3{fill:url(#radial-gradient-2);}.cls-4{fill:url(#radial-gradient-3);}.cls-5{fill:url(#radial-gradient-4);}.cls-6{fill:url(#radial-gradient-5);}.cls-7{fill:url(#radial-gradient-6);}.cls-8{fill:url(#radial-gradient-7);}.cls-9{fill:url(#radial-gradient-8);}.cls-10{fill:url(#radial-gradient-9);}.cls-11{fill:url(#radial-gradient-10);}.cls-12{fill:url(#radial-gradient-11);}.cls-13{fill:url(#radial-gradient-12);}.cls-14{fill:url(#radial-gradient-13);}.cls-15{fill:url(#radial-gradient-14);}.cls-16{fill:url(#radial-gradient-15);}.cls-17{fill:url(#radial-gradient-16);}</style><radialGradient id="radial-gradient" cx="-2068.38" cy="-2379.7" r="3.23" gradientTransform="matrix(-0.68, -1.14, -1.12, 0.69, -2963.09, -434.97)" gradientUnits="userSpaceOnUse"><stop offset="0.27" stop-color="#ffb400"/><stop offset="0.39" stop-color="#d99900"/><stop offset="0.67" stop-color="#785500"/><stop offset="1"/></radialGradient><radialGradient id="radial-gradient-2" cx="-1832.75" cy="-2078.29" r="6.22" xlink:href="#radial-gradient"/><radialGradient id="radial-gradient-3" cx="-1986.14" cy="-2290.07" r="2.56" xlink:href="#radial-gradient"/><radialGradient id="radial-gradient-4" cx="-1980.02" cy="-1888.54" r="3.11" xlink:href="#radial-gradient"/><radialGradient id="radial-gradient-5" cx="-1983.13" cy="-1990.33" r="6.22" xlink:href="#radial-gradient"/><radialGradient id="radial-gradient-6" cx="-1874.22" cy="-2006.5" r="3.31" xlink:href="#radial-gradient"/><radialGradient id="radial-gradient-7" cx="-1969.72" cy="-1937.52" r="3.31" xlink:href="#radial-gradient"/><radialGradient id="radial-gradient-8" cx="-1958.15" cy="-2028.72" r="3.31" xlink:href="#radial-gradient"/><radialGradient id="radial-gradient-9" cx="-1989.35" cy="-2103.51" r="3.31" xlink:href="#radial-gradient"/><radialGradient id="radial-gradient-10" cx="-1878.49" cy="-2167.39" r="3.31" xlink:href="#radial-gradient"/><radialGradient id="radial-gradient-11" cx="-1840.07" cy="-1990.34" r="3.31" xlink:href="#radial-gradient"/><radialGradient id="radial-gradient-12" cx="-1930.01" cy="-1965.22" r="3.31" xlink:href="#radial-gradient"/><radialGradient id="radial-gradient-13" cx="-1701.71" cy="-2078.46" r="3.31" xlink:href="#radial-gradient"/><radialGradient id="radial-gradient-14" cx="-1954.84" cy="-2075.14" r="3.31" xlink:href="#radial-gradient"/><radialGradient id="radial-gradient-15" cx="-1769.89" cy="-2075.15" r="3.31" xlink:href="#radial-gradient"/><radialGradient id="radial-gradient-16" cx="-1917.58" cy="-2005.29" r="3.31" xlink:href="#radial-gradient"/></defs><title>fireflies_14Artboard 1</title><g class="cls-1"><g id="Original_Colors" data-name="Original Colors"><g id="Fireflies"><g id="fireflies_14" data-name="fireflies 14"><path class="cls-2" d="M1088.53,272.65a4.33,4.33,0,0,0-1.42,5.89,4.17,4.17,0,0,0,5.79,1.44,4.34,4.34,0,0,0,1.42-5.89A4.17,4.17,0,0,0,1088.53,272.65Z"/><path class="cls-3" d="M590.88,209.1a8.34,8.34,0,0,0-2.73,11.34,8,8,0,0,0,11.14,2.78A8.34,8.34,0,0,0,602,211.88,8,8,0,0,0,590.88,209.1Z"/><path class="cls-4" d="M933.37,241.69a3.44,3.44,0,0,0-1.12,4.67,3.31,3.31,0,0,0,4.59,1.15,3.44,3.44,0,0,0,1.13-4.67A3.31,3.31,0,0,0,933.37,241.69Z"/><path class="cls-5" d="M481.59,519.73a8.34,8.34,0,0,0,2.74-11.34"/><path class="cls-6" d="M594.43,440.46a8.34,8.34,0,0,0-2.73,11.34,8,8,0,0,0,11.14,2.78,8.34,8.34,0,0,0,2.73-11.34A8,8,0,0,0,594.43,440.46Z"/><path class="cls-7" d="M540.78,308.92a4.44,4.44,0,0,0-1.45,6,4.28,4.28,0,0,0,5.93,1.48,4.45,4.45,0,0,0,1.46-6A4.28,4.28,0,0,0,540.78,308.92Z"/><path class="cls-8" d="M528.4,464.89a4.44,4.44,0,0,0-1.45,6,4.27,4.27,0,0,0,5.93,1.48,4.45,4.45,0,0,0,1.46-6A4.29,4.29,0,0,0,528.4,464.89Z"/><path class="cls-9" d="M622.33,389a4.44,4.44,0,0,0-1.45,6,4.27,4.27,0,0,0,5.93,1.48,4.43,4.43,0,0,0,1.45-6A4.27,4.27,0,0,0,622.33,389Z"/><path class="cls-10" d="M726.88,372.91a4.45,4.45,0,0,0-1.46,6,4.28,4.28,0,0,0,5.94,1.48,4.44,4.44,0,0,0,1.45-6A4.28,4.28,0,0,0,726.88,372.91Z"/><path class="cls-11" d="M723.19,203a4.45,4.45,0,0,0-1.46,6,4.27,4.27,0,0,0,5.93,1.48,4.44,4.44,0,0,0,1.46-6A4.28,4.28,0,0,0,723.19,203Z"/><path class="cls-12" d="M499.67,281.26a4.45,4.45,0,0,0-1.46,6,4.28,4.28,0,0,0,5.93,1.48,4.44,4.44,0,0,0,1.46-6A4.27,4.27,0,0,0,499.67,281.26Z"/><path class="cls-13" d="M532.46,400.71a4.44,4.44,0,0,0-1.45,6,4.27,4.27,0,0,0,5.93,1.48,4.43,4.43,0,0,0,1.45-6A4.28,4.28,0,0,0,532.46,400.71Z"/><path class="cls-14" d="M504.43,63.43a4.45,4.45,0,0,0-1.46,6A4.28,4.28,0,0,0,508.91,71a4.44,4.44,0,0,0,1.45-6A4.28,4.28,0,0,0,504.43,63.43Z"/><path class="cls-15" d="M671.89,353.25a4.44,4.44,0,0,0-1.45,6,4.28,4.28,0,0,0,5.93,1.48,4.44,4.44,0,0,0,1.45-6A4.27,4.27,0,0,0,671.89,353.25Z"/><path class="cls-16" d="M546.84,143.16a4.45,4.45,0,0,0-1.46,6,4.27,4.27,0,0,0,5.93,1.48,4.44,4.44,0,0,0,1.46-6A4.28,4.28,0,0,0,546.84,143.16Z"/><path class="cls-17" d="M568.76,359a4.45,4.45,0,0,0-1.46,6,4.27,4.27,0,0,0,5.93,1.48,4.43,4.43,0,0,0,1.46-6A4.28,4.28,0,0,0,568.76,359Z"/></g></g></g></g></svg>