<svg xmlns="http://www.w3.org/2000/svg" xmlns:xlink="http://www.w3.org/1999/xlink" viewBox="0 0 1920 1080"><defs><style>.cls-1{isolation:isolate;}.cls-10,.cls-11,.cls-12,.cls-13,.cls-2,.cls-3,.cls-4,.cls-5,.cls-6,.cls-7,.cls-8,.cls-9{mix-blend-mode:color-dodge;}.cls-2{fill:url(#radial-gradient);}.cls-3{fill:url(#radial-gradient-2);}.cls-4{fill:url(#radial-gradient-3);}.cls-5{fill:url(#radial-gradient-4);}.cls-6{fill:url(#radial-gradient-5);}.cls-7{fill:url(#radial-gradient-6);}.cls-8{fill:url(#radial-gradient-7);}.cls-9{fill:url(#radial-gradient-8);}.cls-10{fill:url(#radial-gradient-9);}.cls-11{fill:url(#radial-gradient-10);}.cls-12{fill:url(#radial-gradient-11);}.cls-13{fill:url(#radial-gradient-12);}</style><radialGradient id="radial-gradient" cx="-3881.29" cy="-1231.24" r="3.18" gradientTransform="matrix(-1.16, -0.61, -0.6, 1.18, -3520.05, -842.59)" gradientUnits="userSpaceOnUse"><stop offset="0.27" stop-color="#ffb400"/><stop offset="0.39" stop-color="#d99900"/><stop offset="0.67" stop-color="#785500"/><stop offset="1"/></radialGradient><radialGradient id="radial-gradient-2" cx="-3917.6" cy="-1279.56" r="6.22" xlink:href="#radial-gradient"/><radialGradient id="radial-gradient-3" cx="-4101.12" cy="-1146.12" r="6.22" xlink:href="#radial-gradient"/><radialGradient id="radial-gradient-4" cx="-4019.13" cy="-1232.51" r="3.31" xlink:href="#radial-gradient"/><radialGradient id="radial-gradient-5" cx="-3999.93" cy="-1315.83" r="3.31" xlink:href="#radial-gradient"/><radialGradient id="radial-gradient-6" cx="-3964.29" cy="-1251" r="3.31" xlink:href="#radial-gradient"/><radialGradient id="radial-gradient-7" cx="-4054.23" cy="-1225.89" r="3.31" xlink:href="#radial-gradient"/><radialGradient id="radial-gradient-8" cx="-3964.29" cy="-1302.49" r="3.31" xlink:href="#radial-gradient"/><radialGradient id="radial-gradient-9" cx="-4041.8" cy="-1265.95" r="3.31" xlink:href="#radial-gradient"/><radialGradient id="radial-gradient-10" cx="-3993.31" cy="-1171.54" r="3.31" xlink:href="#radial-gradient"/><radialGradient id="radial-gradient-11" cx="-3917.6" cy="-1234.42" r="3.31" xlink:href="#radial-gradient"/><radialGradient id="radial-gradient-12" cx="-3867.82" cy="-1265" r="3.31" xlink:href="#radial-gradient"/></defs><title>fireflies_07Artboard 1</title><g class="cls-1"><g id="Original_Colors" data-name="Original Colors"><g id="Fireflies"><g id="fireflies_07" data-name="fireflies 07"><path class="cls-2" d="M1712.38,72.39a4.25,4.25,0,0,0,1.78,5.69,4.1,4.1,0,0,0,5.59-1.81,4.25,4.25,0,0,0-1.78-5.69A4.1,4.1,0,0,0,1712.38,72.39Z"/><path class="cls-3" d="M1779.91,35.7a8.32,8.32,0,0,0,3.48,11.12,8,8,0,0,0,10.93-3.54,8.32,8.32,0,0,0-3.48-11.12A8,8,0,0,0,1779.91,35.7Z"/><path class="cls-4" d="M1912.56,305.17a8.33,8.33,0,0,0,3.48,11.12,8,8,0,0,0,10.93-3.54,8.32,8.32,0,0,0-3.48-11.12A8,8,0,0,0,1912.56,305.17Z"/><path class="cls-5" d="M1872.72,155a4.42,4.42,0,0,0,1.85,5.92,4.27,4.27,0,0,0,5.82-1.88,4.44,4.44,0,0,0-1.85-5.93A4.28,4.28,0,0,0,1872.72,155Z"/><path class="cls-6" d="M1900.44,44.93a4.44,4.44,0,0,0,1.85,5.93,4.29,4.29,0,0,0,5.82-1.89,4.42,4.42,0,0,0-1.85-5.92A4.27,4.27,0,0,0,1900.44,44.93Z"/><path class="cls-7" d="M1820.26,99.67a4.44,4.44,0,0,0,1.85,5.92,4.27,4.27,0,0,0,5.82-1.88,4.44,4.44,0,0,0-1.85-5.93A4.29,4.29,0,0,0,1820.26,99.67Z"/><ellipse class="cls-8" cx="1913.26" cy="186.22" rx="4.32" ry="4.4"/><path class="cls-9" d="M1851.14,38.92a4.42,4.42,0,0,0,1.85,5.92,4.28,4.28,0,0,0,5.82-1.88A4.44,4.44,0,0,0,1857,37,4.29,4.29,0,0,0,1851.14,38.92Z"/><path class="cls-10" d="M1919,129.35a4.43,4.43,0,0,0,1.85,5.92,4.28,4.28,0,0,0,5.82-1.88,4.44,4.44,0,0,0-1.85-5.93A4.29,4.29,0,0,0,1919,129.35Z"/><path class="cls-11" d="M1806.24,211.13a4.45,4.45,0,0,0,1.85,5.93,4.3,4.3,0,0,0,5.83-1.89,4.43,4.43,0,0,0-1.86-5.92A4.28,4.28,0,0,0,1806.24,211.13Z"/><path class="cls-12" d="M1756.22,90.72a4.44,4.44,0,0,0,1.85,5.93,4.29,4.29,0,0,0,5.82-1.89,4.44,4.44,0,0,0-1.85-5.92A4.27,4.27,0,0,0,1756.22,90.72Z"/><path class="cls-13" d="M1716.87,24.25a4.42,4.42,0,0,0,1.85,5.92,4.27,4.27,0,0,0,5.82-1.88,4.44,4.44,0,0,0-1.85-5.93A4.29,4.29,0,0,0,1716.87,24.25Z"/></g></g></g></g></svg>