<svg xmlns="http://www.w3.org/2000/svg" xmlns:xlink="http://www.w3.org/1999/xlink" viewBox="0 0 1920 1080"><defs><style>.cls-1{isolation:isolate;}.cls-2,.cls-3,.cls-4,.cls-5,.cls-6,.cls-7,.cls-8,.cls-9{mix-blend-mode:color-dodge;}.cls-2{fill:url(#radial-gradient);}.cls-3{fill:url(#radial-gradient-2);}.cls-4{fill:url(#radial-gradient-3);}.cls-5{fill:url(#radial-gradient-4);}.cls-6{fill:url(#radial-gradient-5);}.cls-7{fill:url(#radial-gradient-6);}.cls-8{fill:url(#radial-gradient-7);}.cls-9{fill:url(#radial-gradient-8);}</style><radialGradient id="radial-gradient" cx="-1365.69" cy="3254.51" r="3.18" gradientTransform="matrix(-0.69, 1.13, 1.11, 0.71, -4187.69, -447.29)" gradientUnits="userSpaceOnUse"><stop offset="0.27" stop-color="#ffb400"/><stop offset="0.39" stop-color="#d99900"/><stop offset="0.67" stop-color="#785500"/><stop offset="1"/></radialGradient><radialGradient id="radial-gradient-2" cx="-1402.01" cy="3206.19" r="6.22" xlink:href="#radial-gradient"/><radialGradient id="radial-gradient-3" cx="-1538.65" cy="3127.79" r="6.22" xlink:href="#radial-gradient"/><radialGradient id="radial-gradient-4" cx="-1448.71" cy="3234.75" r="3.31" xlink:href="#radial-gradient"/><radialGradient id="radial-gradient-5" cx="-1563.48" cy="3149.95" r="3.31" xlink:href="#radial-gradient"/><radialGradient id="radial-gradient-6" cx="-1585.55" cy="3169.91" r="3.31" xlink:href="#radial-gradient"/><radialGradient id="radial-gradient-7" cx="-1378.53" cy="3149.95" r="3.31" xlink:href="#radial-gradient"/><radialGradient id="radial-gradient-8" cx="-1402.01" cy="3251.33" r="3.31" xlink:href="#radial-gradient"/></defs><title>fireflies_13Artboard 1</title><g class="cls-1"><g id="Original_Colors" data-name="Original Colors"><g id="Fireflies"><g id="fireflies_13" data-name="fireflies 13"><path class="cls-2" d="M354,315.86a4.11,4.11,0,0,0,5.72-1.33,4.28,4.28,0,0,0-1.31-5.83A4.12,4.12,0,0,0,352.7,310,4.28,4.28,0,0,0,354,315.86Z"/><path class="cls-3" d="M323.67,244.31a8,8,0,0,0,11.18-2.61,8.35,8.35,0,0,0-2.56-11.38,8,8,0,0,0-11.18,2.61A8.33,8.33,0,0,0,323.67,244.31Z"/><path class="cls-4" d="M331.71,35.23a8,8,0,0,0,11.18-2.61,8.35,8.35,0,0,0-2.56-11.38,8,8,0,0,0-11.18,2.61A8.35,8.35,0,0,0,331.71,35.23Z"/><path class="cls-5" d="M389.62,208.65a4.27,4.27,0,0,0,5.95-1.39,4.44,4.44,0,0,0-1.36-6.06,4.28,4.28,0,0,0-6,1.39A4.45,4.45,0,0,0,389.62,208.65Z"/><path class="cls-6" d="M375.42,19.66a4.28,4.28,0,0,0,6-1.39A4.45,4.45,0,0,0,380,12.21a4.27,4.27,0,0,0-5.95,1.39A4.44,4.44,0,0,0,375.42,19.66Z"/><path class="cls-7" d="M412.79,8.91a4.27,4.27,0,0,0,5.95-1.39,4.44,4.44,0,0,0-1.36-6.06,4.28,4.28,0,0,0-6,1.39A4.45,4.45,0,0,0,412.79,8.91Z"/><path class="cls-8" d="M247.24,227.78a4.28,4.28,0,0,0,6-1.39,4.45,4.45,0,0,0-1.37-6.06,4.28,4.28,0,0,0-6,1.39A4.44,4.44,0,0,0,247.24,227.78Z"/><path class="cls-9" d="M375.58,272.89a4.27,4.27,0,0,0,5.95-1.38,4.45,4.45,0,0,0-1.36-6.07,4.3,4.3,0,0,0-6,1.39A4.45,4.45,0,0,0,375.58,272.89Z"/></g></g></g></g></svg>