<svg xmlns="http://www.w3.org/2000/svg" xmlns:xlink="http://www.w3.org/1999/xlink" viewBox="0 0 1920 1080"><defs><style>.cls-1{isolation:isolate;}.cls-2,.cls-3{mix-blend-mode:color-dodge;}.cls-2{fill:url(#radial-gradient);}.cls-3{fill:url(#radial-gradient-2);}</style><radialGradient id="radial-gradient" cx="377.56" cy="-2246.1" r="3.31" gradientTransform="matrix(0.63, -1.16, -1.14, -0.64, -2273.4, -958.27)" gradientUnits="userSpaceOnUse"><stop offset="0.27" stop-color="#ffb400"/><stop offset="0.39" stop-color="#d99900"/><stop offset="0.67" stop-color="#785500"/><stop offset="1"/></radialGradient><radialGradient id="radial-gradient-2" cx="309.38" cy="-2242.8" r="3.31" xlink:href="#radial-gradient"/></defs><title>fireflies_09Artboard 1</title><g class="cls-1"><g id="Original_Colors" data-name="Original Colors"><g id="Fireflies"><g id="fireflies_09" data-name="fireflies 09"><path class="cls-2" d="M532.81,39.13a4.28,4.28,0,0,0-5.87,1.73,4.44,4.44,0,0,0,1.7,6,4.28,4.28,0,0,0,5.87-1.73A4.44,4.44,0,0,0,532.81,39.13Z"/><path class="cls-3" d="M486.08,116.31a4.28,4.28,0,0,0-5.87,1.73,4.43,4.43,0,0,0,1.7,6,4.28,4.28,0,0,0,5.87-1.72A4.45,4.45,0,0,0,486.08,116.31Z"/></g></g></g></g></svg>