<svg xmlns="http://www.w3.org/2000/svg" xmlns:xlink="http://www.w3.org/1999/xlink" viewBox="0 0 1920 1080"><defs><style>.cls-1{isolation:isolate;}.cls-10,.cls-11,.cls-12,.cls-13,.cls-14,.cls-15,.cls-16,.cls-17,.cls-18,.cls-2,.cls-3,.cls-4,.cls-5,.cls-6,.cls-7,.cls-8,.cls-9{mix-blend-mode:color-dodge;}.cls-2{fill:url(#radial-gradient);}.cls-3{fill:url(#radial-gradient-2);}.cls-4{fill:url(#radial-gradient-3);}.cls-5{fill:url(#radial-gradient-4);}.cls-6{fill:url(#radial-gradient-5);}.cls-7{fill:url(#radial-gradient-6);}.cls-8{fill:url(#radial-gradient-7);}.cls-9{fill:url(#radial-gradient-8);}.cls-10{fill:url(#radial-gradient-9);}.cls-11{fill:url(#radial-gradient-10);}.cls-12{fill:url(#radial-gradient-11);}.cls-13{fill:url(#radial-gradient-12);}.cls-14{fill:url(#radial-gradient-13);}.cls-15{fill:url(#radial-gradient-14);}.cls-16{fill:url(#radial-gradient-15);}.cls-17{fill:url(#radial-gradient-16);}.cls-18{fill:url(#radial-gradient-17);}</style><radialGradient id="radial-gradient" cx="-3023.9" cy="-730.65" r="7.39" gradientTransform="matrix(-1.33, -0.16, -0.05, 1.3, -3367.54, 1083.7)" gradientUnits="userSpaceOnUse"><stop offset="0.27" stop-color="#ffb400"/><stop offset="0.39" stop-color="#d99900"/><stop offset="0.67" stop-color="#785500"/><stop offset="1"/></radialGradient><radialGradient id="radial-gradient-2" cx="-2777.1" cy="-710.24" r="6.8" xlink:href="#radial-gradient"/><radialGradient id="radial-gradient-3" cx="-2854.11" cy="-636.79" r="3.18" xlink:href="#radial-gradient"/><radialGradient id="radial-gradient-4" cx="-2890.43" cy="-685.11" r="6.22" xlink:href="#radial-gradient"/><radialGradient id="radial-gradient-5" cx="-2910.96" cy="-743.06" r="6.22" xlink:href="#radial-gradient"/><radialGradient id="radial-gradient-6" cx="-3086.39" cy="-769.72" r="3.31" xlink:href="#radial-gradient"/><radialGradient id="radial-gradient-7" cx="-2972.76" cy="-721.39" r="3.31" xlink:href="#radial-gradient"/><radialGradient id="radial-gradient-8" cx="-2937.12" cy="-656.54" r="3.31" xlink:href="#radial-gradient"/><radialGradient id="radial-gradient-9" cx="-2798.77" cy="-744.66" r="3.31" xlink:href="#radial-gradient"/><radialGradient id="radial-gradient-10" cx="-3051.89" cy="-741.35" r="3.31" xlink:href="#radial-gradient"/><radialGradient id="radial-gradient-11" cx="-3073.96" cy="-721.39" r="3.31" xlink:href="#radial-gradient"/><radialGradient id="radial-gradient-12" cx="-2866.95" cy="-741.35" r="3.31" xlink:href="#radial-gradient"/><radialGradient id="radial-gradient-13" cx="-2937.12" cy="-708.04" r="3.31" xlink:href="#radial-gradient"/><radialGradient id="radial-gradient-14" cx="-2943.45" cy="-766.81" r="3.31" xlink:href="#radial-gradient"/><radialGradient id="radial-gradient-15" cx="-2818.62" cy="-667.25" r="3.31" xlink:href="#radial-gradient"/><radialGradient id="radial-gradient-16" cx="-2890.42" cy="-639.97" r="3.31" xlink:href="#radial-gradient"/><radialGradient id="radial-gradient-17" cx="-2840.64" cy="-670.56" r="3.31" gradientTransform="matrix(-0.7, -1.14, -1.05, 0.76, -2237.15, -2079.42)" xlink:href="#radial-gradient"/></defs><title>fireflies_03Artboard 1</title><g class="cls-1"><g id="Original_Colors" data-name="Original Colors"><g id="Fireflies"><g id="fireflies_03" data-name="fireflies 03"><path class="cls-2" d="M685.57,613.76A10.7,10.7,0,0,0,695,624.5a8.88,8.88,0,0,0,10.22-8.41,10.7,10.7,0,0,0-9.44-10.74A8.87,8.87,0,0,0,685.57,613.76Z"/><path class="cls-3" d="M356.82,601.28a9.83,9.83,0,0,0,8.69,9.88,8.16,8.16,0,0,0,9.4-7.73,9.85,9.85,0,0,0-8.69-9.89A8.17,8.17,0,0,0,356.82,601.28Z"/><path class="cls-4" d="M460.25,709.22a4.61,4.61,0,0,0,4.07,4.62,3.82,3.82,0,0,0,4.4-3.62,4.59,4.59,0,0,0-4.06-4.62A3.83,3.83,0,0,0,460.25,709.22Z"/><path class="cls-5" d="M507.09,651.86a9,9,0,0,0,7.95,9,7.47,7.47,0,0,0,8.6-7.08,9,9,0,0,0-7.95-9A7.46,7.46,0,0,0,507.09,651.86Z"/><path class="cls-6" d="M537.47,580a9,9,0,0,0,7.94,9A7.46,7.46,0,0,0,554,582a9,9,0,0,0-7.94-9A7.47,7.47,0,0,0,537.47,580Z"/><path class="cls-7" d="M776.22,573.65a4.8,4.8,0,0,0,4.23,4.81A4,4,0,0,0,785,574.7a4.79,4.79,0,0,0-4.23-4.82A4,4,0,0,0,776.22,573.65Z"/><path class="cls-8" d="M622.45,618.32a4.8,4.8,0,0,0,4.23,4.82,4,4,0,0,0,4.58-3.77,4.79,4.79,0,0,0-4.23-4.81A4,4,0,0,0,622.45,618.32Z"/><path class="cls-9" d="M571.6,696.71a4.8,4.8,0,0,0,4.23,4.82,4,4,0,0,0,4.58-3.77,4.8,4.8,0,0,0-4.23-4.81A4,4,0,0,0,571.6,696.71Z"/><path class="cls-10" d="M392.11,560.66a4.8,4.8,0,0,0,4.23,4.81,4,4,0,0,0,4.58-3.77,4.78,4.78,0,0,0-4.23-4.81A4,4,0,0,0,392.11,560.66Z"/><path class="cls-11" d="M728.81,605a4.79,4.79,0,0,0,4.23,4.82,4,4,0,0,0,4.58-3.77,4.8,4.8,0,0,0-4.23-4.81A4,4,0,0,0,728.81,605Z"/><path class="cls-12" d="M757.13,634.32a4.78,4.78,0,0,0,4.23,4.81,4,4,0,0,0,4.58-3.76,4.78,4.78,0,0,0-4.23-4.81A4,4,0,0,0,757.13,634.32Z"/><path class="cls-13" d="M482.68,575.72a4.79,4.79,0,0,0,4.23,4.82,4,4,0,0,0,4.58-3.77,4.8,4.8,0,0,0-4.23-4.81A4,4,0,0,0,482.68,575.72Z"/><path class="cls-14" d="M574.31,630a4.8,4.8,0,0,0,4.24,4.81,4,4,0,0,0,4.58-3.77,4.81,4.81,0,0,0-4.24-4.81A4,4,0,0,0,574.31,630Z"/><path class="cls-15" d="M585.83,554.82a4.79,4.79,0,0,0,4.23,4.81,4,4,0,0,0,4.58-3.77,4.79,4.79,0,0,0-4.23-4.81A4,4,0,0,0,585.83,554.82Z"/><path class="cls-16" d="M414.46,664.11a4.78,4.78,0,0,0,4.23,4.81,4,4,0,0,0,4.58-3.76,4.78,4.78,0,0,0-4.23-4.81A4,4,0,0,0,414.46,664.11Z"/><path class="cls-17" d="M508.58,710.81a4.8,4.8,0,0,0,4.23,4.82,4,4,0,0,0,4.58-3.77,4.79,4.79,0,0,0-4.23-4.81A4,4,0,0,0,508.58,710.81Z"/><ellipse class="cls-18" cx="448.34" cy="663.83" rx="4.18" ry="4.55" transform="translate(-350.68 606.88) rotate(-51.89)"/></g></g></g></g></svg>