<svg id="Original_Colors" data-name="Original Colors" xmlns="http://www.w3.org/2000/svg" viewBox="0 0 1920 1080"><defs><style>.cls-1{fill:#1d1d3a;}</style></defs><title>tree_06Artboard 1</title><path id="Tree_B_6" data-name="Tree B 6" class="cls-1" d="M701.05,894c1.38-.14,3.66-2,6.1-1.17a9.05,9.05,0,0,0,4.09.6,2.31,2.31,0,0,1,1.86-.94c1.95-.2.08-.75-.41-1.77s-2,.13-4.07.61-1.38-.55-.91-2.26-2.92.28-5.36-1,1.3-1,3.58-1.23.17-1-.16-1.91,5.05-.21,6.68.27,2.36-.2,4.23-.82.08-.41-1.14-.61-1.3-.62-3,.41-1.22-.21-2.65-1.64-1.67-.41-3.46-1.37,1-.75,4.48-1,1.87-.07,4.31.41,1.55,0,2.93-1.3,5.46-.75,6.19-1.77-1.63.27-1.63.27l-1.79-.2a17.79,17.79,0,0,0-3.09.88c-2.12.76-1.3-.13-2.44-1.16s-1-.27-2.85.41-.9-.34-1.71-1.91-1.47.34-3.5.53-1.55-.74-.82-2.58-1.54-1-3.33-2.53,4.47-.62,6.71-.34,1.18-.21,1.18-1.23,2.61-.07,5.86.27,8.63-1.37,9.45-2.6-1.06.14-1.55-.68-1.71.07-3.58.82-1-.27-.9-1.37-1.38,0-3.58.35-.73-1.23-.41-2.33-1.3.34-3.5.55-.49-1.16.17-2.19-1.55-.54-2.93-2.05,4.72.75,6.92.89,1-.48.56-1.78c-.37-1,1-.58,3.26.16a5.09,5.09,0,0,1,.89-.26c.52-.11,1.12,0,1.62-.13,1.44.19,1.92-.6,1.45-2.37a11,11,0,0,0-1.28-.19A7.17,7.17,0,0,1,720,855.5c-1.2-.29-.32,0-1.93.49-2,.68-.81-.68-.4-2.12s-1.71-.2-2.85,1.3-1.88-.2-1.47-2-.89-1.27-2.2-1.82,4.48,0,7.09-1.23,3.5-.27,3.5-.27a20.48,20.48,0,0,0,5-.27c2.36-.48-1.79-.69.08-1.78s1.47.27,2.28-1.09,2.53-.82,3.91-2.39-3.42,1-3.42,1a2,2,0,0,1-1.95-.72c-.82-1-1.47.82-3.26,1.43s-.89-.34-.24-2.18-1.39.61-3.67,1.47-1.79-.58-1.62-2.36-1.88-.48-3.59-1.09,2.36-.82,4.89-1.71.24-.69-.65-1.85,1.3-.41,5.53-.27,3.42-.48,5.7-1.23,0,0-.32-1.37,1,.07,2.44.07,1.63-2,.65-1.91-.65.61-2.69,0-1.06.54-2.52,1.91-.41-.89-.9-2.12-.73,1-1,2.33-1.55.06-1.9-1.44-3.72.62-6.33-.07.17-1.23,2.53-1.43.73-.69,2.44-2,3.34-.21,4.72-1-.81-.54-2.2,0-1.22-.34-1.16-2.32-1.6-.41-3.88-1.91,1.46-.82,4.47-1,2.77-.21,4.64.34,1.88-.48,3.1-1.57,4.59-1.5,4.59-1.5a25.84,25.84,0,0,0-4.67.06c-2.45.28-1.31-1.16-1.79-3s-1.39-.41-3.1.34-1.14-.68-.49-2.67-3.09-.82-4.64-2.39,3.34-.13,5.3.14.16-.68.48-1.91,4.24,1.77,7.41,1.91,6.51-3.42,5.29-4.24-1.14.55-2.68.89-.82-.48-2.28-1.09-.82.2-1.88.82-.73,0-1.62-1.16-1.63-.55-4.64-.41-2.36-1.17-3.42-2.6,2.77.55,3.34-.14-.41-1,.89-1.16,1.87.55,3.26,1,.89,0,1.38-.76,1.38.14,2.12.82,1.22.62,1.54-.2,1.23-.27,2.45.27,1.71-.68,2.6-1.43-.16-.62-.73-1.23-1.14.34-2.36.48.24-.48.49-1.1-2,.14-2,.14a13.13,13.13,0,0,1-1.46,1.43c-.9.76-1.71,0-2-.82s.41-.47,1.31-1.5-.49-.55-2.12.21-1.14,1.09-2.28.47.33-1,2.12-2-.25-.41-2.53-.34-.57-.48-2.6-1.16-2-.07-2.12-1.09,2.2-.62,3.91-.35,1.55.76,2.6,0,1.31.62,2.93,1.1,0-.62-.4-2,2.85,1,4.64,2.18.73-.61,1.95-1.16,1.47-.48,1.63-1.43-.81-.55-1.95-1.3-1.31-.14-2-.62-1,1.1-2.44,0,.16-1,1.14-2.12-1.39.35-2.77.07,0-.61,1.38-1.5-2.19-.89-3.25-2.8,2.36.48,3.25,1.16.74-.41.49-1.5,1.31.82,3.34,1.64,1.14-.62.65-1.58,1.39-.54.49-1.77-.9-.34-1.47-1.51,1-.75-.16-1.36-.81-1.37-1.38-2.46,1.38.61,2.2.89-.17-1.17.81-.69,1.95,1.64,2.77,1.23-.17-2-.57-2.73-.08-.55.16-1.56-1.79-1.72-1.71-2.47,3,2.47,3,2.47l0-.7s-1.3-5.39,0-5.26,1.39.07,1.39,2-.66,3.69.16,3.21,1.87-1.36,1.55-.61-1.31,1.3-.57,1.91.81.82.24,1.44-1.22,2.12-.65,2.18,1.55-3.34,2.12-2.52.24,1.23,1.22.68,3.9-2.46,3.66-1.3-3,2.53-2,2.73,3.1.48,2,.76-2.2.06-1.63.75,2.36,1.57.49,1.23-4.23-1.57-3.83-.28.57,1.23-.24,1.71-1.39.34-1.39,1.57-.24,1.3.82,1.1,1.46-.21.81.82a3,3,0,0,0-.57,1.77s2.2-.68,2.69-1.91.89-3.21,1.63-2.53,1.3.48,1.3.48-1.55.14,1.63-.75-.65.89.89,1.57.82,1.37.82,1.37-4.4.75-3.5,1.3a2.34,2.34,0,0,1,1,1.7l-2.85-.4s.58,1.91-1,1.43-2.93-1.08-2.61.08.49,1.35.16,2-1.71,1.64.09,1.3,3.5-2.05,3.82-1.1-.32.89,1.39,1.71,1.79-.61,3.09.82.24,2,2.52,2.19,7.33.27,5.05.89-4.64-.75-4.8.61a2,2,0,0,1-1.22,1.71s-.25-2.39-1.71-1.23-1.47,1.91-2.53.89-1.54-2.46-2.44-1.71a2.54,2.54,0,0,1-2,.55s-1.22-.14-1,.68a4.62,4.62,0,0,0,1.38,1.71s2.28-1,2.93.2a2.21,2.21,0,0,0,1.63,1.23s4-1.77,4.15-.61-.24,1.71.9,1.57a5.14,5.14,0,0,1,2.12.21l2.93-.62s2.36-.82,2.6.07a1.26,1.26,0,0,0,1.19.89s3.94.2,2.39,1-5.37.82-5.37.82,0,2.94-1.22,2.12-3.26-1.91-2.77-1,1.79,1.32.25,1.1-3.1-1.71-3.5-.62,0,2-1.47,1.3-4.23-3-4.31-1.43.24,2.59,3.17,3.28,5.62-1.3,6.59,0,1,1.64,2.77,1.5,1.87.27,4.07-.41,4.64-1.09,3.42-.21-4.88.07-4.56,1.85,3.67,3.89.54,2.87-3.63-3-3.87-1,2.11,4.31-.33,3.15-3.18-4.44-3.91-2.46-.32,3.55-1.63,2.25a13.49,13.49,0,0,0-3.42-2.25s-1.7-1.37-2.44-.21.57,1.79,2.69,3,6-.79,6.67.58a3.73,3.73,0,0,0,2.2,1.77s4.89-1.57,4.89-.34-.65.68,1.71,1.3,5.21-.62,4,1.23-1.55,3.21-4.16,2.53-5.21-1.57-4.47-.34,2,2.39.16,2.18-4.72-4.58-5.62-4,.16.14.73,1.43-1.46.35-1.05,1.3,2,2.26.08,2.12-5.7-3.67-5.29-2.55-2.45,0-1.39,1.18,4.24,3.69,7.17,3.69,5.78-2.11,5.69-.68-.65,1.44.9,1.37,2.2-.55,2.93.34,6.84-.48,5.7,1-4.56.61-3.91,1.84,2.61,2.39.82,2.32-7.74-2.39-6.68-1.43,3.67,2.62,1.84,1.89-4.2-2.23-2.73-.66,4.07,3.62,1.7,3.21-6.1-3.48-5.61-2.12,1.22,2.19-.08,1.3-4.12-1.5-2-.2,2.67,2.73,5.84,3.07,7.17-.89,7.33.14,1.87-.75,2,.41,1.06,2.66-1.46,2.53-3.75.13-2.85.75.89.27,2.44,1.09,7.33-.41,6.35.41-1.79,2.27-.57,2.09,5.62-.11,2.2.78-5.54-.75-6.68.34.57,1.64-2.52,1-1.95.61.41,1.84,7.24-.27,7.24.82-1.06.89,1.14,1.3,5.7-1.09,4.72.14-4.8.89-5.37,2.25.82,2.67-1,2.12-2.52-2.05-3.66-1.43a3.29,3.29,0,0,1-2.44.13s-4.32-1.7-3.18-.75,3.5,1.23,5.21,2.53,1.71,1.37,4,1.64,6.43-1.09,6.19,0-1.3,1.16.41,1.57,6.59.28,5.13,1.37-7.49,1.37-6.92,2.46,2.76,2.19-.33,1.5-7.73-2.59-6.92-1.57,1.3,2.46-.33,2.26-1.87,0-2.52.47.25.66-3-.45-3.4-1.39-3.09-.36-1.06.06-.82.81a3.87,3.87,0,0,0,3.83,2.47c2.2-.28,2-.89,3.5.06a8.85,8.85,0,0,0,4.15.89s1.47-1.77,1.63-.82c0,0-2.2,1.85.08,1.78s1.87-1,3.26.27,6.83,1.44,5.21,1.78-5.3-.89-3.75.75,3.26,3.21,1.39,2.87-6-2.8-4.81-1.43,3.83,3.48,1.39,2.73-4.56-4.17-4.64-2.32.16,3-1.06,2.18-3.42-1.71-3.42-.75,1.46,1.85-.65.82-2-1.09-3.26-.55-4.15-1.57-3.09-.2a11,11,0,0,0,7.65,4c3.66.14,3.42-.41,5.29.55a3.43,3.43,0,0,0,3.18.2l3.5-.47s-3.26,2.32-1.88,2.18,3.91-1.77,3.67-.89,1.06,1.58,1.06,1.58,5.53.88,3.5,1.36-6.43-.54-5.78.82-.17,2-.17,2-2.93-2.05-2.36-.54,2.93,3.28.33,2.53-5.37-2-4.48-.69.49,1.85,1.87,2.94-.57,1.44,1.39,2.19,7.16,2.25,5.45,2.39-6.19-1.09-5.29.2.49,2.6-.73,1.64-6.6-3.82-5.38-2.32,4.24,3.65,2,3.06-3.58-3.4-4.31-2.1-.41,2.87-1.88,1.77-2.76-2.66-3.42-1.43a3.67,3.67,0,0,1-2.28,1.57s-2-1.43-3.33-1.37-.9,1.23-3.42.82-2.61-2.05-3.91-1.36-2,1.5-2.52,0,.24-3.08-1.14-2.26a2.05,2.05,0,0,1-2.28.14l-1.71.61v14.9H739L740,902.46a3.86,3.86,0,0,0-2.85.07c-1.14.68-1.3,1.16-2.6,1.09s-.82.34-2.69,1.37-1.06.13-2.44.13-.65,1.3-2.6,1.1-.17-2-2.2-1.64-4.24,1.36-6.43,1.16-.09-.82-2.12-1-.9-.41-2.69-.54-1.14.82-1.54-.69-3.34-.75-2.12-2.05,2-.06,4.07-.95,4.8-3.15,3.09-2.46-2,2.25-3.42,1.43-3.22.27-5.43,1.16-3,.48-.92-1.09,3.83-2.73.74-1.91-5.11,1-2.53,0,4-1.51,2.45-1.92-3.5-.75-1.14-.88S699.67,894.12,701.05,894Z"/></svg>