<svg id="Original_Colors" data-name="Original Colors" xmlns="http://www.w3.org/2000/svg" viewBox="0 0 1920 1080"><defs><style>.cls-1{fill:#1d1d3a;}</style></defs><title>tree_02Artboard 1</title><path id="Tree_B_2" data-name="Tree B 2" class="cls-1" d="M1911.74,809c-5.59-.55-14.78-8.26-24.63-4.68-8,2.91-9.5,2.18-16.47,2.4-1.07-1.66-3.11-3.32-7.49-3.78-7.88-.83-.33-3,1.64-7.16s7.88.55,16.41,2.48,5.58-2.21,3.68-9.14,11.75,1.14,21.6-4.09-5.25-4.14-14.44-5-.66-3.86.65-7.72-20.35-.83-26.92,1.1-9.52-.82-17.07-3.3-.33-1.66,4.6-2.48,5.25-2.48,12.14,1.65,4.93-.83,10.67-6.61,6.73-1.66,14-5.52-4.12-3-18.06-3.85-7.55-.28-17.4,1.65-6.24,0-11.82-5.24-22-3-25-7.16,6.57,1.1,6.57,1.1l7.22-.83s3.94.55,12.47,3.59,5.26-.55,9.85-4.69,3.94-1.1,11.49,1.65,3.62-1.37,6.9-7.71,5.91,1.38,14.12,2.14,6.23-3,3.28-10.41,6.24-4.13,13.46-10.2-18.06-2.48-27.09-1.37-4.76-.83-4.76-5-10.5-.28-23.63,1.1-34.8-5.51-38.09-10.47,4.27.55,6.24-2.76,6.89.28,14.45,3.31,3.93-1.11,3.61-5.51,5.58,0,14.44,1.37,3-5,1.64-9.37,5.26,1.38,14.12,2.21,2-4.69-.66-8.82,6.24-2.21,11.82-8.27-19,3-27.9,3.58-4.27-1.93-2.3-7.16c1.51-4-4.16-2.35-13.12.64a20.7,20.7,0,0,0-3.61-1.07c-2.08-.44-4.5,0-6.51-.51q-8.7,1.15-5.86-9.56a50.17,50.17,0,0,1,5.18-.78c5.32-.75,10.87-2.17,14.17-5,4.84-1.18,1.3-.21,7.78,2,8.21,2.75,3.28-2.76,1.64-8.54s6.9-.83,11.49,5.23,7.55-.83,5.91-8.1,3.61-5.13,8.87-7.33-18.06,0-28.57-5-14.11-1.1-14.11-1.1a83.77,83.77,0,0,1-20-1.11c-9.52-1.93,7.22-2.75-.33-7.16s-5.91,1.1-9.19-4.41-10.18-3.31-15.76-9.65,13.79,4,13.79,4a7.85,7.85,0,0,0,7.88-2.88c3.28-4.14,5.91,3.3,13.13,5.78s3.61-1.38,1-8.82,5.59,2.48,14.78,5.92,7.22-2.33,6.56-9.5,7.56-1.93,14.45-4.41-9.52-3.3-19.7-6.89-1-2.75,2.63-7.44-5.25-1.65-22.33-1.1-13.79-1.93-23-5,0,0,1.32-5.51-4.27.27-9.85.27-6.57-8-2.63-7.71,2.63,2.48,10.83,0,4.27,2.2,10.18,7.71,1.64-3.58,3.61-8.54,3,4.13,3.94,9.37,6.24.27,7.64-5.79,15,2.48,25.52-.27-.66-5-10.18-5.79-2.95-2.76-9.85-8.27-13.46-.83-19-4.13,3.29-2.21,8.87,0,4.92-1.38,4.68-9.37,6.48-1.66,15.67-7.72-5.91-3.31-18.06-3.86-11.16-.82-18.71,1.38-7.55-1.93-12.47-6.34-18.51-6.06-18.51-6.06A104,104,0,0,1,1784,518c9.85,1.1,5.26-4.69,7.23-12.13s5.58-1.65,12.47,1.38,4.6-2.76,2-10.75,12.48-3.31,18.72-9.65-13.46-.55-21.34.56-.66-2.76-2-7.72-17.08,7.16-29.88,7.72-26.26-13.78-21.34-17.09,4.6,2.2,10.83,3.58,3.29-1.93,9.2-4.41,3.28.83,7.55,3.31,3,0,6.56-4.69,6.57-2.2,18.72-1.65,9.52-4.68,13.79-10.47-11.17,2.2-13.46-.55,1.64-4.14-3.62-4.69-7.55,2.21-13.13,4.14-3.61,0-5.58-3-5.58.56-8.53,3.31-4.93,2.48-6.24-.83-4.93-1.1-9.85,1.11-6.9-2.76-10.5-5.79.65-2.48,3-5,4.59,1.38,9.52,1.93-1-1.93-2-4.41,7.88.55,7.88.55a51.7,51.7,0,0,0,5.91,5.79c3.61,3,6.89,0,7.88-3.31s-1.65-1.93-5.26-6.06,2-2.21,8.54.82,4.6,4.41,9.19,1.93-1.31-3.85-8.53-8,1-1.65,10.17-1.38,2.3-1.93,10.51-4.68,8.21-.28,8.54-4.41-8.87-2.48-15.76-1.38-6.24,3-10.51,0-5.25,2.48-11.82,4.41,0-2.48,1.64-8.27-11.49,4.14-18.71,8.82-3-2.48-7.88-4.68-5.91-1.93-6.57-5.79,3.29-2.2,7.88-5.24,5.26-.55,8.21-2.48,3.94,4.41,9.85,0-.66-4.13-4.6-8.54,5.59,1.38,11.17.28,0-2.48-5.58-6.07,8.86-3.58,13.13-11.3-9.52,1.93-13.13,4.69-3-1.65-2-6.06-5.26,3.3-13.46,6.61-4.6-2.48-2.63-6.34-5.58-2.2-2-7.16,3.61-1.38,5.91-6.07-3.94-3,.66-5.51,3.28-5.51,5.58-9.92-5.58,2.48-8.87,3.58.66-4.68-3.28-2.75-7.88,6.61-11.16,5,.65-8,2.29-11,.33-2.2-.65-6.29,7.22-6.93,6.89-10-11.95,10-11.95,10l.13-2.8s5.26-21.77,0-21.22-5.58.28-5.58,8.27,2.63,14.88-.65,12.95-7.56-5.51-6.24-2.48,5.25,5.24,2.3,7.72-3.29,3.3-1,5.78,4.93,8.55,2.63,8.82-6.24-13.5-8.54-10.19-1,5-4.92,2.75-15.76-9.92-14.78-5.23,12.15,10.19,8.21,11-12.47,1.93-7.88,3,8.87.28,6.57,3-9.52,6.34-2,5,17.07-6.34,15.43-1.1-2.3,5,1,6.89,5.58,1.38,5.58,6.34,1,5.23-3.28,4.41-5.91-.83-3.28,3.3,2.3,7.17,2.3,7.17-8.87-2.76-10.84-7.72-3.61-12.95-6.56-10.19-5.26,1.93-5.26,1.93,6.24.55-6.56-3,2.62,3.59-3.61,6.34-3.29,5.51-3.29,5.51,17.73,3,14.12,5.24-3.94,6.89-3.94,6.89l11.49-1.65s-2.3,7.71,4.27,5.78,11.82-4.34,10.5.31-2,5.48-.65,8.24,6.89,6.61-.33,5.23-14.12-8.26-15.43-4.41,1.31,3.59-5.58,6.89-7.22-2.48-12.48,3.31-1,8-10.17,8.82-29.55,1.1-20.36,3.58,18.71-3,19.37,2.48a8,8,0,0,0,4.92,6.89s1-9.64,6.9-5,5.91,7.72,10.18,3.58,6.23-9.92,9.85-6.89a10.16,10.16,0,0,0,7.88,2.21s4.92-.55,3.93,2.75-5.58,6.89-5.58,6.89-9.19-3.85-11.82.83-6.56,5-6.56,5-16.09-7.16-16.74-2.48,1,6.89-3.62,6.34a21.08,21.08,0,0,0-8.53.83l-11.82-2.48s-9.52-3.31-10.51.27-4.77,3.58-4.77,3.58-15.91.83-9.67,4.14,21.67,3.31,21.67,3.31,0,11.85,4.92,8.54,13.13-7.72,11.16-3.86-7.22,5.3-1,4.44,12.47-6.92,14.11-2.51,0,8,5.91,5.24,17.08-12.13,17.4-5.79-1,10.47-12.8,13.23-22.65-5.24-26.59,0-3.94,6.61-11.16,6.06-7.56,1.1-16.42-1.65-18.71-4.41-13.79-.83,19.7.27,18.39,7.44-14.81,15.71-2.15,11.57,14.62-12.12,15.61-4.13-8.54,17.36,1.31,12.68,12.8-17.92,15.76-9.92,1.31,14.33,6.57,9.09,13.78-9.09,13.78-9.09,6.9-5.52,9.85-.83-2.29,7.19-10.83,12-24.3-3.18-26.92,2.33-8.87,7.17-8.87,7.17-19.69-6.34-19.69-1.38,2.62,2.75-6.9,5.23-21-2.48-16.09,5,6.24,13,16.75,10.2,21-6.34,18-1.38-8.2,9.65-.65,8.82,19-18.46,22.65-16-.66.55-3,5.79,5.91,1.37,4.26,5.23-8.2,9.1-.32,8.54,23-14.81,21.34-10.3,9.84.11,5.58,4.79-17.08,14.88-28.89,14.88-23.31-8.54-23-2.75,2.63,5.79-3.61,5.51-8.86-2.2-11.82,1.38-27.57-1.93-23,3.86,18.39,2.48,15.76,7.44-10.5,9.64-3.28,9.37,31.19-9.65,26.92-5.79-14.81,10.58-7.4,7.63,16.92-9,11-2.67-16.41,14.61-6.89,13,24.62-14,22.65-8.54-4.92,8.82.33,5.24,16.58-6.07,8.13-.83-10.76,11-23.56,12.4-28.89-3.58-29.55.55-7.55-3-8.21,1.66-4.27,10.74,5.91,10.19,15.1.55,11.49,3-3.61,1.11-9.85,4.41-29.54-1.65-25.6,1.66,7.22,9.15,2.29,8.43-22.65-.44-8.86,3.14,22.32-3,26.92,1.38-2.3,6.61,10.18,3.86,7.88,2.48-1.64,7.44-29.22-1.1-29.22,3.3,4.27,3.59-4.6,5.24-23-4.41-19,.55,19.37,3.58,21.67,9.1-3.29,10.74,3.94,8.54,10.17-8.27,14.77-5.79,9.85.55,9.85.55,17.4-6.89,12.8-3-14.11,5-21,10.2-6.89,5.51-16.08,6.61-25.94-4.41-25,0,5.26,4.69-1.64,6.34-26.59,1.1-20.68,5.51,30.2,5.51,27.91,9.92-11.17,8.82,1.31,6.07,31.19-10.48,27.9-6.34-5.25,9.92,1.32,9.09,7.55,0,10.18,1.93-1,2.64,12.14-1.85,13.72-5.59,12.44-1.46,4.31.28,3.32,3.31-6.56,11-15.43,9.92-8.21-3.58-14.12.28-16.74,3.58-16.74,3.58-5.91-7.16-6.57-3.31c0,0,8.87,7.45-.32,7.17s-7.56-4.13-13.14,1.1-27.57,5.79-21,7.17,21.34-3.59,15.1,3-13.13,13-5.58,11.57,24.3-11.3,19.37-5.78-15.43,14.05-5.58,11,18.39-16.81,18.72-9.37-.66,12.13,4.26,8.82,13.79-6.89,13.79-3-5.91,7.44,2.63,3.3,8.21-4.41,13.13-2.2,16.74-6.34,12.48-.83-16.09,15.44-30.86,16-13.79-1.66-21.34,2.2-12.81.83-12.81.83L1567,787.47s13.14,9.37,7.56,8.82-15.76-7.17-14.78-3.59-4.27,6.34-4.27,6.34-22.32,3.59-14.11,5.51,25.93-2.2,23.31,3.31.65,8,.65,8,11.82-8.26,9.52-2.2-11.82,13.23-1.31,10.2,21.67-8,18.06-2.76-2,7.44-7.55,11.85,2.29,5.79-5.58,8.82-28.9,9.09-22,9.64,25-4.4,21.34.83-2,10.47,3,6.62,26.6-15.44,21.67-9.37-17.07,14.71-8.2,12.32,14.44-13.7,17.39-8.47,1.65,11.58,7.56,7.17,11.16-10.75,13.78-5.79,9.2,6.34,9.2,6.34,7.88-5.79,13.46-5.51,3.61,5,13.79,3.31,10.5-8.27,15.75-5.52,8.21,6.07,10.18,0-1-12.4,4.6-9.09,9.19.55,9.19.55l6.9,2.48v60.08h42.67l-4.26-64.21s6.89-2.48,11.49.27,5.25,4.69,10.5,4.41,3.29,1.38,10.84,5.51,4.27.55,9.85.55,2.62,5.24,10.5,4.41.66-8,8.87-6.61,17.07,5.51,25.93,4.68.33-3.3,8.54-4.13,3.61-1.65,10.83-2.2,4.6,3.3,6.24-2.76,13.46-3,8.54-8.27-7.88-.27-16.42-3.86-19.37-12.67-12.47-9.92,8.2,9.1,13.78,5.79,13,1.09,21.94,4.68,12.21,1.94,3.67-4.4-15.43-11-2.95-7.72,20.58,3.89,10.17,0-16.08-6.06-9.84-7.72,14.11-3,4.59-3.58S1917.32,809.52,1911.74,809Z"/></svg>