<svg id="Original_Colors" data-name="Original Colors" xmlns="http://www.w3.org/2000/svg" viewBox="0 0 1920 1080"><defs><style>.cls-1{fill:#1d1d3a;}</style></defs><title>tree_04Artboard 1</title><path id="Tree_B_4" data-name="Tree B 4" class="cls-1" d="M1329.48,895.29c1.67.1,5.59-.5,3.51-.95s-6-.3-4.94-1.15,6.13-1.59,4.82-2.19-4.64,1.34-5.53,1,3.15-1.7,1.9-2-1-1.1-3.27.4-8.68,1.94-7.13,1.4,2.14-2.2.17-1.6c-1.4.43-2,1.28-3.24,1.56h0c-1.21,0-1.33-.4-3-.83s.59-.72.11-1.56.07-.64,1-1.33-2.48-.52-4.4-1.76-.24-.75.4-.26.49.26.66-.49.76.49,2.27.89,0-.66.93-1,1.65.75,2.82,1.27.59-.57.42-1.73,2,.26,3.06.58.41-.52.65-1.36,4.23-.86,6-.34.86-.55,1.38-1.82,3.09.26,4.8-.38-1.71-1.07-2.95-1.15-.1-.78,0-1.39-3.33.17-4.23.09a5,5,0,0,0-2.4.08c-1.24.32-.66-.43,0-1s-3.37-.63-6.84-.57-7.91-2.83-8.46-3.47,1.06.12,1.06.12l1.22-.35a2.47,2.47,0,0,1,1.71.35c1.16.54,1.06-.06,1.2-.67s3.68.87,3.68.87,1.17.23,1.41-.55,2,.92,3.85,1.07.62-1.82.17-2.66,1.38,0,1.38,0a.53.53,0,0,0,.21-.78c-.28-.58,3.16,1,6.22.49s1-1,.83-1.82,1-1.15,1.72-1.82-.8-.75-2.1-.26-1.48.41-1.79-.08-1.24-.23-2.82,0-.59-.61.24-1-1.69-.64-3.85-.81-5.61-1.24-6-2,1.17-.35,2.23-.09.66.17.83-.46,1.48.34,3.27.6.51-.66-.31-1.44.34-.52,1.41-.46,3.88-1.62,4.61-2.57-2.76.17-2.76.17-1.34.15-1.36-.78-3.55,1-4.83.61.66-.43,1.31-1-8.18-1.62-8.6-1.88.14-.55,1.31-.14,1.07-.26,1.34-.93.72-.23,2.44.61.66-.06,1-.81,1.34.26,2.68.55.55-.58,0-1.56,2.24-1.13,3.17-2-1.89-.66-3.17-.12-.79-.11-.82-.89-4.37.43-6.5,0-.21-.67.72-1.76,1.13-.06,2.3-.06.45-.29-.34-.9,1.44-1.09,2.06-2.22-4.26.67-5.43.55,1-.61,1.51-1.27-8.49.46-9.35-.49,1.37,0,1.65-.52-.59-1,.14-1,1.54.92,2.64.49,1.21.14,2.24,0-1.48-2.34-2.17-2.91,1.38.31,3.75.4.86-.23,2.55-.29.31-.75.48-1.76,1.82-.52,2.2-1.44-3.75-.38-3.75-.38a.78.78,0,0,1-.69-.84c.07-.72-2.09.38-3.8.52s-.53-1,0-1.76-4.28.32-5.21.55-1.37-.32-2-.84-2.61.38-2.78-.6-1.72-1.39-2.1-2.14,1.61.69,2.3,1.18.41-.05.66-.66,1.13.4,2.75.38-.31-1.59.44-1.65,2.89,1.41,3.37.49-1.2-1.27-1.44-2.08,2.79,2.31,3.61,2.17-.1-.9-.17-1.68,1.58-.29,2.75,0-.17-.78.52-1.64,1.82.55,2.27-.2-3.89-1.74-5-1.76.09-.73,0-1.59-5.1,1-6.79.81.38-.52,1.07-1.36-5.4-.06-7.43-.78-3.58-1.88-3.44-2.25,1.48-.06,1.92.34,1.59.06,1.59.06.58-.29,1.65.55,1.2.2,1.61-.92,2.2-.67,2.89-.06.86.06.72-.78,1.9.89,2.38.11-2-1.61-2.1-2.22,2.3,1.19,2.85,1.45.35-.41.35-1.13,1.48.49,1.82.87.31.28.91-.38.4-.23,2-.26-.93-1.27-2.89-1.7.28-.9.52-1.62-3,.69-3.92.55.72-1-.49-.9-3.71,1.07-4.67.9.82-.67.55-1.44-1.86.14-4.1.46-2.57-1.62-2.64-2.43,2.16.72,2.16.72,1.07-.11,1.14-1.09,2,1.5,3.64,1.41.14-1.12.31-2.16,1.41.08,2.75.83.93-.14,1-1.12.51-.18,1.58,0,.93-.41.65-1.27,2.69-.24,3.68-1-1.44-.83-2.61-.69-.65-.2-1-1-2.82.69-2.82.69-1.28.52-1.58,0-.42-.49-1.66-.43-.72-.32-.37-1.24-1-.32-2,.17a14.51,14.51,0,0,1-5.6.81c-1.14-.23-.31-.58.42-1.27s-1.8-.4-2.31-.92-.21-.93,0-1.71.62.29,1.34,1.16.9-.41,1-1,0-.43.47-.12.79,0,1-1,.89.18,2.1,2.2,1.82.4,2.27-1,.17-.78,1.79-.8,1.44-1.16,1.54-2.31-2.54.54-4,.14.24-.55.31-1.36-2-.11-3.72.75-4.88,0-4.88,0-1.27-.8-1.17-1.32,1-.06,1.89.31.86.44,1.24-.11.79.17,2.79-.15.38-.55.13-1.47,1.65-.29,3.1-.78-.17-.66.69-1.27,1.92-1,2.2-2.08-.69-.49-1.86.23-2.48.06-4.33,1-3.68.93-5.06,1.5-1.1-.23-.69-.83,1-.32,2.72-.35.52-.37.9-1.18,1.47.06,2.71-.42.11-.45-.48-1.34,2-1,3.06-1.76-.41-.64-1-1.36,1.34-1.24,1.17-2.11-1.27.41-2.27,1.24-.58-.34-.76-1.24-1.82,1.44-2.3,2.4-.59.69-.9-.35-.61.87-1,1.85-2.54,2.22-3.33,2.63-1.2-1.88-1.1-3-.18-1.18.31-2.11-.18-1.15,0-1.76,1.06.23,1.3,1,1.14.35,1.34-.4-1.75-1.36-1.65-2.08,2.62,1.47,3.79,1.44-.45-1.38-1.38-2.16,1.65.29,2.82.17-.17-.61-1.07-1.24,1.59-1.42,2.07-2.69-1.82.55-2.86,1.51-.72-.26-.37-1.25-1.11,0-1.9,1.16a6.43,6.43,0,0,1-2.84,2.26l.05-1.65c.37-.26.85-.51,1.28-.87,1-.84-.86-.15-.62-.87s.93-.92,1.07-1.47-1.08.44-1.64.28l0-.94c-.08-.19-.08-4.27-.69-4s-.45,4.28-.83,5-3-2.55-3.2-2.11-.15,1.35,1.3,2.62,1,2.36,1,2.36v2.88l-.94-2.3s.46-1.47-.53-1.66-.35.57-.93,1-2.87-2.62-3.18-2,2.66,3.83,2,4.09-3.58.38-2.81.83,2.2-.19,3.42,0a6.24,6.24,0,0,1,3.42,2.81,19.25,19.25,0,0,1,.38,2.68,3.62,3.62,0,0,1-1.44-1.73c-.31-1-.89-2.29-1.44-1.72s.24,1.53,0,2.3-1.28,1.34,0,1.6,1.66.51,2,1.14a10.08,10.08,0,0,1,.53,1.73,18.33,18.33,0,0,1-2.5-1.41c-1.45-1-1.83-2.36-2.75-1.85s-5.4-3.06-5.25-2.17,2.51,1.85,1.45,2.56-2.74.83-1.67,1.46,3.19.71,3.11.9-1.82.76-1.36,1.59,2,.26,2.51.64,2.24.26,1.92.83-.67,2.24,0,2.17.81-1.53,1.88-1.53.15,1.66,1,1.15,1.14-1.4,1.67-.51.84,2.15-1,2.72-2.66.09-4.94-.55-4-2-4.19-1.15,1.75,1.74.69,1.61-3.65-2.89-4.26-2.25,1,1.28.15,1.6-3.72.64-3.19,1.28,2.74-.07,3.19.38-3.12,2.49-2.28,2.74,3.27-1.59,4.76-1.21,0,1.66,1,1.34,4.49-1.72,4.87-1.08-2.28,1.91-1.07,2,1.75-1,3.43-1.47,2.07-.36,1.69.86-4.57,3.29-6.29,2.71-3.54-1.15-3.62-.44,2,.76,1,1.21-8.59.51-7.91,1,3-.45,2.66.7-.68,2.62.54,2.17,5-1.4,4.41-.64-.76,2.24.07,1.41,2.22-1.79,2.86-1.15.64,1.6,1.63.51,3.27-1.72,2.59-.77-.54,2.56.68,1.35a9.31,9.31,0,0,1,3.2-2.37c1.21-.51-.08,1.34-2.21,2.43s-2.88.64-5.89,1.47-6.2-1.22-6.28-.58.3,1.09-1.6,1.28-4.1-1.28-4-.26-4.79.71-3.73,1.47,6,.71,6.17,1.92-.9,2.68,0,2.42.07,1.86.9,1.54,4.42-3.64,4-2.24-2.67,3.64-1.07,2.75,3-3.45,3.35-2.24-.31,1.85.45,1.6,4.12-1.41,1.72.13-5.14,3.57-7.19,3.44-4.49-1.66-4.41-.63,1.37,1.59-.61,1.85-4,1.15-2.82,1.4.61,1.34,1.45,1.53,5-.83,4.64-.19-2.21,2.75-.69,1.73,4.41-2.75,4-2-1.83,2.49-.53,1.59,3-2.36,3.08-1.66,1.4-.95,1.78-.25,2-.9,1.83-.19-5.1,3.7-8.67,3.76-6.24-1.78-6.39-1.15-1.45-.06-1.9.52,1.37,2.55,3.34,2.68,3.81.06,2.82.7-2.74,1.85-1.29,1.91,3.57-2,3.19-1.15-1.22,2.43,0,1.54,3.73-3,3.88-2.11.15,1.92,1.41.77,3.08-1.73,2.47-.83,0,1.34.91.76-2.58,2.94-5.7,3.07-8.6-.58-8.29.38-3.81,0-3.5.89-4.87.64-4.11,1.54,4.41,3.12,6.31,2.74-.15,1.21.92,1.41,3.49-1.6,3.49-.64-1.06,2.3,0,2,3.28-2.94,3.5-2.11,0,2.05.76,1.09,3.27-2.24,3.2-1.53.07,1.4.84.64,2-1.15,1.82-.52a3.58,3.58,0,0,1-3,2.46,17.94,17.94,0,0,0-3.5.67c-1.83.45-4,.45-3.35,1.09s-.07.38-.76,1.08-.15.9-2.66,1.15-9.74-.38-9.66.45,1.07,1,2.59,1.35-.84,1.52.22,1.78,3.5-.07,2.9.57-2.06,1.28-.84,1.54,4.33-1.09,3.8-.32-1.67,1.78-.38,1.72,3.88-1.34,3.73-.51-.91,1.79.38,1.28,2.89-1.34,2.81-.71-1,1.79.31,1.15,2.81-1.21,2.66-.7-5.78,2.24-8.22,2.49-11.33-1.4-11-.57,1.9.57,2.58,1.66-1.6,2-.38,2.17,3.73-.13,2.89.57-1.9,1.92-.53,1.66,3.35-1.34,3.12-.57-1.75,1.85.15,1.34,4.41-1.47,4-.73-1.53,1.62-.31,1.24,4-1.34,3.73-.77-7.68,3.32-10,3.26-5-1.41-4.64-.45,1,1.21-.54,1.15-4.48-1.28-4.1-.25.84,1.59-.46,1.72-3.27.13-2.2.77,4.86.89,4.26,1.72-2.29,2.62-.76,2.23,3.87-1.72,3.72-.44-.07,1.85.84,1.21.84-1,2.51-.51,4-1.28,4-.38-1,1.91.68,1.66,2.74-1.92,3.58-1.22,3.88-1.53,3.5-.57-4.72,3.51-7.3,2.74-3.5-1.08-4.42-.44-2.43-.13-3.27.38-5.24.26-4.33.83,4.62.57,3.72,1.21-2.28,1.6-.91,1.54,3.5-1,2.89,0-1.59,1.59-.07,1.34,2.66-1.09,2.74-.2-.54,1.35.6,1,3-.9,2.74-.2.46,1.47-1.29,1.92-3.58-1.28-5.1.13-5.09,1-4.33,1.72-1.9,1.28-1,1.85,3.73-.89,3.5.26-1.22,2.17.3,1.34,3-1.92,2.89-.83-.76,2.17.69,1.34,2.51-1.92,2.89-1.09.07,1.28,1.29.64,1.9-1.34,2.36-.76,2-.45,2-.45a21,21,0,0,0,2.66-.64c1.44-.45-3.35,1.66-4.72,2.24s-2.81-.45-4.79.83-5.63-1.09-5.48.06-.45.57-3,1-3.58,1-2.36,1.41,1.67.57.23,1.34-3.5.76-2.59,1.34,4.11.44,3.5,1.34-.68,2.17,1.14,1.34,5.33-2.81,5-1.6-.53,3,.69,1.87,3-2.51,2.73-1.36-3.34,4.22-1.21,3.58,3.72-1.85,3.34-.58.16,1.54.16,1.54,2.2-1.73,1.9-.26-1,3.45.83,1.85,4.34-3.45,5.56-3.13-.69,1.92,1.14,1.6,1.9-2.36,2.81-1.15,1.22,2.3,2.59.7,2.66-4,3.12-2.23,1.06,2.87,2.05,1.79,2.59-4.09,3.12-2.81-1.07,2.61.15,2.55,1-1,1.14.77-.46,8.36-.46,8.36h9.82s-1.68-7.92-1.37-9.19.76.7,1.37-.32-.23-2.68,1-1.73,5.33,5.81,5.79,4.09.83-3.38,1.74-2.36a2.47,2.47,0,0,0,1.83,1l1.75-.58a16.78,16.78,0,0,1,5.17,1c2.36,1,2.28,1.28,2.74.07s-.38-2.3,2.36-1.54,1-.76,3.57.07,5.78.76,5-.07-2.51-1.21.45-.95,4.8-.75,2-1.55-5.88-1.6-5-2.15,2.67-1.15.83-1.35-3.39-1.29-2.32-1.49,5.22,1.19,4.48.5-.79-1.7.58-1.25,4.1,1,3.5.05S1327.82,895.19,1329.48,895.29Z"/></svg>