<svg id="Original_Colors" data-name="Original Colors" xmlns="http://www.w3.org/2000/svg" viewBox="0 0 1920 1080"><defs><style>.cls-1{fill:#1d1d3a;}</style></defs><title>tree_09Artboard 1</title><path id="Tree_B_9" data-name="Tree B 9" class="cls-1" d="M187.5,882.72c-4.13-.41-10.93-6.12-18.22-3.47-5.92,2.16-7,1.62-12.19,1.78-.79-1.23-2.3-2.46-5.55-2.8-5.83-.61-.24-2.24,1.22-5.3s5.83.41,12.15,1.83,4.13-1.63,2.72-6.76,8.7.85,16-3-3.89-3.06-10.69-3.67-.49-2.85.48-5.71-15.06-.61-19.92.82-7.05-.62-12.64-2.45-.24-1.23,3.4-1.84,3.89-1.83,9,1.23,3.65-.62,7.9-4.9,5-1.22,10.33-4.08-3.05-2.23-13.37-2.85-5.59-.21-12.88,1.22-4.61,0-8.74-3.88-16.28-2.24-18.47-5.3,4.86.82,4.86.82l5.34-.61a53.4,53.4,0,0,1,9.24,2.65c6.32,2.24,3.89-.41,7.29-3.47s2.91-.82,8.5,1.22,2.68-1,5.11-5.71,4.37,1,10.44,1.59,4.62-2.2,2.43-7.71,4.62-3.06,10-7.54-13.37-1.84-20.05-1-3.52-.62-3.52-3.68-7.78-.2-17.5.82-25.76-4.08-28.19-7.75,3.16.41,4.62-2,5.1.2,10.69,2.45,2.92-.82,2.68-4.08,4.13,0,10.69,1,2.18-3.67,1.21-6.94,3.89,1,10.45,1.63,1.46-3.46-.49-6.52,4.62-1.63,8.75-6.12-14.09,2.24-20.65,2.65-3.16-1.43-1.7-5.3c1.12-3-3.08-1.74-9.71.47a15.29,15.29,0,0,0-2.67-.79c-1.54-.32-3.34,0-4.82-.38q-6.45.85-4.34-7.07a35,35,0,0,1,3.83-.58c3.94-.56,8.05-1.61,10.49-3.72,3.58-.87,1-.15,5.76,1.46,6.07,2,2.43-2,1.21-6.32s5.11-.62,8.51,3.87,5.59-.61,4.37-6,2.68-3.8,6.56-5.43-13.36,0-21.14-3.67-10.45-.82-10.45-.82a62.13,62.13,0,0,1-14.82-.81c-7-1.43,5.35-2-.24-5.31s-4.37.82-6.8-3.26-7.54-2.45-11.67-7.14,10.21,3,10.21,3a5.79,5.79,0,0,0,5.83-2.13c2.43-3.06,4.37,2.44,9.72,4.28s2.67-1,.73-6.53,4.13,1.84,10.93,4.38,5.35-1.73,4.86-7,5.59-1.43,10.69-3.26-7-2.45-14.58-5.1-.72-2,2-5.51-3.89-1.22-16.52-.81-10.21-1.43-17-3.68,0,0,1-4.08-3.16.21-7.29.21-4.86-5.92-1.95-5.71,1.95,1.83,8,0,3.16,1.63,7.54,5.71,1.21-2.65,2.67-6.33,2.19,3.06,2.91,6.94,4.62.2,5.66-4.28,11.11,1.83,18.89-.21-.49-3.67-7.54-4.28-2.18-2-7.29-6.12-10-.61-14.09-3.06,2.43-1.63,6.56,0,3.65-1,3.47-6.93,4.79-1.23,11.6-5.72-4.38-2.44-13.37-2.85-8.26-.61-13.85,1-5.59-1.43-9.23-4.69S79,667.12,79,667.12a77.86,77.86,0,0,1,13.94.2c7.29.82,3.89-3.46,5.35-9s4.13-1.23,9.23,1,3.4-2,1.46-8,9.23-2.44,13.85-7.14-10-.4-15.8.41-.48-2-1.45-5.71S93,644.27,83.5,644.68,64.06,634.48,67.71,632s3.4,1.63,8,2.65,2.43-1.43,6.8-3.27,2.43.62,5.59,2.45,2.19,0,4.86-3.47,4.86-1.63,13.85-1.22,7-3.47,10.21-7.75-8.26,1.63-10-.41,1.22-3.06-2.67-3.47-5.59,1.64-9.72,3.06-2.67,0-4.13-2.24-4.13.41-6.32,2.45-3.64,1.83-4.61-.61-3.65-.82-7.29.81-5.11-2-7.77-4.28.48-1.84,2.18-3.67,3.4,1,7,1.42-.72-1.42-1.45-3.26,5.83.41,5.83.41a38.17,38.17,0,0,0,4.37,4.28c2.67,2.25,5.11,0,5.83-2.45s-1.21-1.42-3.88-4.48,1.45-1.63,6.31.61,3.41,3.26,6.81,1.43-1-2.86-6.32-5.92.73-1.22,7.53-1,1.7-1.43,7.78-3.47,6.07-.2,6.32-3.26-6.56-1.83-11.67-1-4.61,2.24-7.77,0-3.89,1.84-8.75,3.26,0-1.83,1.21-6.11-8.5,3.06-13.85,6.52-2.18-1.83-5.83-3.46-4.37-1.43-4.86-4.29,2.43-1.63,5.83-3.87,3.89-.41,6.08-1.84,2.91,3.26,7.29,0-.49-3.06-3.4-6.32,4.13,1,8.26.2,0-1.83-4.13-4.49,6.56-2.65,9.72-8.36S84,569,81.32,571.05s-2.19-1.23-1.46-4.49-3.89,2.45-10,4.9-3.41-1.84-2-4.69-4.13-1.64-1.46-5.31,2.68-1,4.38-4.49-2.92-2.24.48-4.07,2.43-4.08,4.14-7.35-4.14,1.84-6.57,2.65.49-3.46-2.43-2-5.83,4.9-8.26,3.68.49-5.92,1.7-8.16.25-1.64-.48-4.66,5.34-5.13,5.1-7.38S55.7,537,55.7,537l.1-2.07s3.89-16.12,0-15.71-4.13.2-4.13,6.12,1.95,11-.48,9.59-5.59-4.08-4.62-1.84,3.89,3.87,1.7,5.71-2.43,2.45-.73,4.28,3.65,6.33,2,6.53-4.62-10-6.32-7.55-.73,3.68-3.65,2-11.66-7.34-10.93-3.87,9,7.55,6.07,8.16-9.23,1.43-5.83,2.24,6.56.21,4.86,2.25-7,4.69-1.46,3.67,12.64-4.69,11.42-.82-1.7,3.67.73,5.1,4.13,1,4.13,4.69.73,3.88-2.43,3.26-4.37-.61-2.43,2.45a9,9,0,0,1,1.7,5.31s-6.56-2-8-5.72-2.68-9.58-4.86-7.54-3.89,1.43-3.89,1.43,4.61.4-4.86-2.25,1.94,2.65-2.67,4.69-2.43,4.08-2.43,4.08,13.12,2.25,10.44,3.88-2.91,5.1-2.91,5.1l8.5-1.23s-1.7,5.71,3.16,4.29,8.75-3.22,7.78.23-1.46,4.05-.49,6.09,5.1,4.9-.24,3.88-10.45-6.12-11.42-3.27,1,2.65-4.13,5.1-5.35-1.83-9.24,2.45-.73,5.91-7.53,6.53c-3.14.28-8,.48-11.72.78v2.35c5.6.22,10.59-2,11,1.35a5.93,5.93,0,0,0,3.65,5.1s.73-7.14,5.1-3.67,4.37,5.71,7.53,2.65,4.62-7.34,7.29-5.1a7.53,7.53,0,0,0,5.83,1.64s3.65-.41,2.92,2S40,616.53,40,616.53s-6.81-2.85-8.75.62a6.65,6.65,0,0,1-4.86,3.67S14.49,615.51,14,619s.73,5.1-2.67,4.69a15.69,15.69,0,0,0-6.32.62l-4.19-.88v11.68c3.07-1.72,6-2.88,4.92-.81C4.29,637.14.4,638.2,5,637.57s9.23-5.13,10.45-1.86,0,5.91,4.37,3.87,12.64-9,12.88-4.28-.73,7.75-9.48,9.79-16.76-3.87-19.68,0a27.77,27.77,0,0,1-2.73,3.44v17.35c4.69-4.13,6.51-10,8.32-5.08,2.19,5.91,1,10.6,4.86,6.73s10.2-6.73,10.2-6.73,5.11-4.08,7.29-.62-1.7,5.33-8,8.89-18-2.36-19.92,1.72a9.13,9.13,0,0,1-2.73,3.3v14.09c2.88-2.83,5.38-5.19,6.62-4.33,2.67,1.83-.49.4-2.19,4.28s4.37,1,3.16,3.87-6.08,6.74-.24,6.33,17-11,15.79-7.63,7.29.08,4.13,3.55-12.63,11-21.38,11a25,25,0,0,1-5.89-.8v22.3c2.8-1.52,4.58-2.27,3.94-.49-1.45,4.08-3.64,6.53.25,3.88s12.27-4.49,6-.61c-4.19,2.59-6.38,5.35-10.2,7.21V918.23c1.32,1,2.39,2.21,7.35,1.41,7.53-1.23,7.77-6.12,11.66-4.08s6.07,4.49,7.53,0-.73-9.18,3.4-6.73,6.81.41,6.81.41l5.1,1.83v44.47H74.27L71.11,908s5.1-1.83,8.51.21,3.88,3.46,7.77,3.26,2.43,1,8,4.08,3.16.41,7.29.41,1.94,3.87,7.78,3.26.48-5.92,6.56-4.9,12.63,4.08,19.19,3.47.25-2.45,6.32-3.06,2.67-1.22,8-1.63,3.4,2.45,4.62-2,10-2.24,6.31-6.12-5.83-.2-12.14-2.85-14.34-9.39-9.24-7.35,6.08,6.73,10.21,4.29,9.63.8,16.23,3.46,9,1.43,2.72-3.26-11.42-8.16-2.19-5.71,15.24,2.88,7.54,0-11.91-4.49-7.29-5.71,10.45-2.25,3.4-2.65S191.64,883.13,187.5,882.72Z"/></svg>