<svg id="Original_Colors" data-name="Original Colors" xmlns="http://www.w3.org/2000/svg" viewBox="0 0 1920 1080"><defs><style>.cls-1{fill:#1d1d3a;}</style></defs><title>tree_08Artboard 1</title><path id="Tree_B_8" data-name="Tree B 8" class="cls-1" d="M445.94,813.48c7.19.43,24.14-2.16,15.15-4.1s-25.68-1.29-21.31-5,26.45-6.89,20.8-9.48-20,5.82-23.88,4.31,13.61-7.33,8.21-8.84-4.36-4.74-14.12,1.73-37.5,8.4-30.82,6,9.25-9.48.77-6.9c-6.05,1.85-8.58,5.55-14,6.74h0c-5.25.09-5.75-1.72-12.73-3.59s2.53-3.11.45-6.73.29-2.74,4.16-5.73-10.7-2.25-19-7.61-1-3.24,1.74-1.12,2.13,1.12,2.87-2.12,3.27,2.12,9.8,3.86-.15-2.86,4-4.36,7.13,3.24,12.18,5.49,2.53-2.5,1.78-7.48,8.47,1.12,13.22,2.49,1.79-2.24,2.83-5.86,18.27-3.74,25.69-1.5,3.72-2.37,5.94-7.85S453,757,460.43,754.28s-7.4-4.62-12.75-5-.44-3.37,0-6-14.4.74-18.27.37-5.05-1-10.39.37-2.82-1.87.15-4.24-14.56-2.74-29.56-2.49-34.16-12.22-36.54-15,4.6.5,4.6.5l5.26-1.5s2.32-.87,7.37,1.5,4.6-.25,5.2-2.87,15.89,3.74,15.89,3.74,5.05,1,6.09-2.37,8.62,4,16.64,4.61,2.67-7.85.74-11.47,5.94.13,5.94.13,2.08-.87.89-3.37,13.67,4.37,26.89,2.12,4.3-4.24,3.56-7.85,4.16-5,7.43-7.86-3.42-3.24-9.06-1.12-6.39,1.75-7.73-.37-5.34-1-12.18-.13-2.52-2.62,1-4.11-7.28-2.75-16.63-3.49-24.21-5.37-26-8.61,5.05-1.49,9.66-.37,2.82.75,3.56-2,6.39,1.5,14.11,2.62,2.23-2.87-1.33-6.23,1.48-2.25,6.09-2,16.78-7,19.9-11.09-11.88.75-11.88.75-5.8.62-5.89-3.37-15.35,4.24-20.85,2.62,2.82-1.87,5.65-4.24-35.35-7-37.14-8.11.6-2.37,5.65-.62,4.6-1.12,5.79-4,3.12-1,10.55,2.62,2.82-.25,4.3-3.49,5.8,1.12,11.59,2.37,2.38-2.5,0-6.74,9.65-4.86,13.66-8.72-8.17-2.87-13.66-.5-3.42-.5-3.57-3.87-18.86,1.87-28.07,0-.89-2.87,3.12-7.6,4.9-.25,9.95-.25,1.93-1.25-1.48-3.87,6.24-4.74,8.91-9.6-18.42,2.87-23.47,2.37,4.31-2.62,6.54-5.48-36.69,2-40.4-2.12,5.94.12,7.13-2.25-2.53-4.49.59-4.36,6.68,4,11.44,2.12,5.19.62,9.65-.13-6.39-10.1-9.36-12.59,5.94,1.37,16.19,1.74,3.72-1,11-1.24,1.34-3.24,2.08-7.61,7.88-2.24,9.51-6.23-16.19-1.62-16.19-1.62-3.27-.5-3-3.62-9.06,1.62-16.43,2.25-2.29-4.12,0-7.61-18.48,1.37-22.49,2.37-5.94-1.37-8.46-3.62-11.29,1.62-12-2.61-7.43-6-9.06-9.23,7,3,9.95,5.11,1.78-.25,2.82-2.87,4.9,1.75,11.88,1.62-1.33-6.85,1.93-7.1S350,547.56,352,543.57s-5.2-5.49-6.24-9,12,10,15.6,9.35-.45-3.86-.75-7.23,6.84-1.25,11.89-.12-.75-3.37,2.22-7.11,7.88,2.37,9.81-.87-16.79-7.49-21.63-7.61.39-3.12,0-6.86-22,4.24-29.32,3.49,1.64-2.24,4.61-5.86-23.32-.25-32.09-3.36-15.44-8.11-14.85-9.73,6.39-.25,8.32,1.5,6.83.25,6.83.25,2.53-1.25,7.13,2.37,5.2.87,7-4,9.51-2.87,12.48-.25,3.71.25,3.12-3.37,8.17,3.87,10.25.5-8.47-7-9.07-9.6,10,5.11,12.33,6.23,1.49-1.74,1.49-4.86,6.39,2.12,7.87,3.74,1.34,1.25,3.92-1.62,1.72-1,8.56-1.12-4-5.49-12.48-7.36,1.19-3.86,2.23-7-12.78,3-16.93,2.37,3.12-4.24-2.08-3.87-16.05,4.62-20.2,3.87,3.56-2.87,2.37-6.24-8,.63-17.67,2-11.14-7-11.44-10.47,9.36,3.11,9.36,3.11,4.6-.5,4.9-4.73,8.76,6.48,15.74,6.11.6-4.87,1.34-9.36,6.09.38,11.88,3.62,4-.62,4.16-4.86,2.23-.75,6.83.12,4-1.74,2.83-5.48,11.58-1,15.89-4.24-6.24-3.62-11.29-3-2.82-.87-4.16-4.36-12.18,3-12.18,3-5.49,2.25-6.82,0-1.79-2.12-7.14-1.87-3.12-1.37-1.63-5.36-4.46-1.37-8.47.75-19.31,4.49-24.21,3.49-1.34-2.49,1.8-5.49-7.74-1.74-10-4-.89-4-.15-7.35,2.68,1.25,5.79,5,3.87-1.75,4.33-4.49-.17-1.87,2.06-.5,3.42,0,4.31-4.24,3.86.75,9.06,9.48,7.87,1.74,9.8-4.12.75-3.37,7.73-3.49,6.23-5,6.68-10-11,2.36-17.08.62,1-2.37,1.34-5.86-8.77-.5-16,3.24-21.09,0-21.09,0-5.49-3.49-5.05-5.73,4.16-.25,8.17,1.37,3.72,1.87,5.35-.5,3.42.75,12-.63,1.63-2.36.59-6.35,7.13-1.25,13.37-3.37-.74-2.87,3-5.49,8.32-4.49,9.51-9-3-2.12-8,1-10.7.25-18.72,4.37-15.89,4-21.83,6.48-4.75-1-3-3.61,4.31-1.38,11.73-1.5,2.23-1.62,3.86-5.11,6.39.25,11.74-1.79.44-1.95-2.08-5.82,8.76-4.49,13.22-7.6-1.78-2.75-4.46-5.86,5.79-5.37,5-9.11-5.49,1.75-9.8,5.37-2.53-1.5-3.27-5.37-7.87,6.24-9.95,10.35-2.53,3-3.86-1.49-2.68,3.74-4.46,8-11,9.6-14.41,11.34-5.18-8.08-4.75-12.72-.74-5.11,1.34-9.1-.74-5,0-7.6,4.6,1,5.64,4.49,4.9,1.49,5.79-1.75-7.57-5.86-7.12-9,11.28,6.36,16.33,6.24-1.93-6-5.94-9.35,7.13,1.24,12.18.74-.74-2.61-4.6-5.36,6.83-6.11,8.91-11.59S289.5,324.88,285,329s-3.12-1.12-1.63-5.36-4.76,0-8.17,5c-2.51,3.66-8.7,9.06-12.28,9.74l.21-7.1a62,62,0,0,0,5.53-3.76c4.31-3.62-3.71-.63-2.67-3.75s4-4,4.6-6.35c.49-1.95-4.66,1.91-7.07,1.19l.12-4c-.32-.83-.32-18.47-2.95-17.37s-2,18.47-3.61,21.51-12.82-11-13.8-9.1-.66,5.79,5.58,11.3,4.39,10.21,4.39,10.21v12.4l-4.06-9.92s2-6.34-2.3-7.17-1.5,2.48-4,4.41-12.39-11.3-13.7-8.55,11.49,16.55,8.54,17.65-15.44,1.65-12.16,3.58,9.53-.82,14.78,0,13.8,8.83,14.78,12.14,1.65,11.58,1.65,11.58-4.93-3-6.24-7.45-3.83-9.93-6.19-7.44,1,6.61,0,9.92-5.53,5.79,0,6.9,7.17,2.2,8.49,5a42.1,42.1,0,0,1,2.29,7.44,78.88,78.88,0,0,1-10.78-6.06c-6.3-4.14-7.94-10.2-11.88-8s-23.32-13.23-22.66-9.37,10.84,8,6.24,11-11.83,3.58-7.23,6.34,13.8,3,13.47,3.86-7.89,3.31-5.92,6.89,8.55,1.1,10.84,2.76,9.7,1.1,8.3,3.58-2.87,9.65,0,9.38,3.53-6.62,8.13-6.62.65,7.17,4.27,5,4.93-6.06,7.22-2.2,3.63,9.28-4.26,11.76-11.5.37-21.36-2.39-17.08-8.55-18.06-5,7.55,7.52,2.95,6.93S198.65,397,196,399.76s4.27,5.52.66,6.89-16.1,2.76-13.8,5.52,11.83-.28,13.8,1.65-13.47,10.76-9.86,11.86,14.14-6.89,20.54-5.24.16,7.17,4.43,5.79,19.38-7.44,21-4.69-9.86,8.28-4.6,8.55,7.55-4.13,14.78-6.34,8.95-1.53,7.31,3.71-19.74,14.21-27.16,11.73-15.3-5-15.62-1.93,8.54,3.31,4.27,5.24-37.12,2.2-34.17,4.41,13.14-1.93,11.5,3-3,11.31,2.3,9.38,21.68-6.07,19.05-2.76-3.28,9.65.33,6.07,9.57-7.72,12.34-5,2.77,6.9,7,2.21,14.12-7.44,11.17-3.31-2.3,11,3,5.79,8.55-8,13.8-10.2-.33,5.79-9.52,10.48-12.44,2.75-25.44,6.34-26.79-5.24-27.12-2.48,1.31,4.68-6.9,5.51-17.74-5.51-17.08-1.1-20.69,3-16.09,6.34,26,3,26.65,8.27-3.89,11.58,0,10.48.28,8,3.89,6.62,19.06-15.72,17.41-9.65-11.49,15.71-4.6,11.85,13.14-14.89,14.46-9.65-1.32,8,2,6.9,17.78-6.07,7.41.55S201,518.05,192.08,517.5s-19.38-7.17-19.05-2.76,5.91,6.89-2.63,8-17.08,5-12.15,6.06,2.62,5.79,6.24,6.62,21.68-3.59,20-.83-9.52,11.86-3,7.45,19.05-11.86,17.08-8.55-7.89,10.75-2.3,6.89,12.81-10.2,13.3-7.17,6.08-4.13,7.72-1.1,8.54-3.86,7.88-.83-22,16-37.44,16.27-26.94-7.72-27.59-5-6.25-.28-8.22,2.2,5.92,11,14.46,11.58,16.42.28,12.15,3-11.82,8-5.58,8.27,15.43-8.55,13.79-5-5.25,10.47,0,6.61,16.1-13,16.75-9.1.66,8.28,6.08,3.31S223,556.1,220.33,560s0,5.79,3.94,3.31S213.1,576,199.63,576.5s-37.11-2.48-35.8,1.66-16.42,0-15.11,3.86-21,2.75-17.74,6.61,19.05,13.51,27.27,11.86-.66,5.24,3.94,6.07,15.11-6.9,15.11-2.76-4.6,9.93,0,8.82,14.12-12.68,15.11-9.1,0,8.83,3.28,4.69,14.13-9.65,13.8-6.62.33,6.07,3.61,2.76,8.54-5,7.88-2.21a15.54,15.54,0,0,1-13.14,10.62c-8.54,1-7.22,1-15.11,2.9s-17.08,1.93-14.45,4.68S178,622,175,625s-.66,3.86-11.5,5-42-1.65-41.72,1.93,4.6,4.5,11.17,5.84-3.61,6.57,1,7.67,15.11-.27,12.48,2.49-8.87,5.51-3.61,6.61,18.72-4.68,16.42-1.38-7.23,7.72-1.64,7.45,16.75-5.79,16.09-2.21-3.94,7.72,1.65,5.52,12.48-5.79,12.15-3-4.27,7.73,1.31,5,12.16-5.24,11.5-3-25,9.66-35.48,10.76-48.94-6.07-47.62-2.48,8.21,2.48,11.16,7.17-6.89,8.54-1.64,9.37,16.1-.55,12.48,2.48-8.21,8.27-2.3,7.17,14.46-5.79,13.47-2.48-7.55,8,.66,5.79,19-6.32,17.08-3.16-6.57,7-1.31,5.37,17.08-5.8,16.09-3.31-33.18,14.33-43.36,14.06-21.35-6.07-20-1.93,4.2,5.24-2.34,5-19.34-5.51-17.7-1.1,3.61,6.89-2,7.44-14.13.55-9.53,3.31,21,3.86,18.4,7.45-9.86,11.3-3.29,9.65,16.75-7.45,16.1-1.93-.33,8,3.61,5.24,3.61-4.14,10.84-2.21S151,738.91,151,742.77s-4.27,8.27,2.95,7.16,11.83-8.27,15.44-5.23,16.76-6.62,15.11-2.49S164.16,757.38,153,754.07s-15.11-4.69-19.05-1.93-10.51-.55-14.13,1.65-22.66,1.11-18.72,3.59,20,2.48,16.06,5.24-9.82,6.89-3.91,6.62,15.11-4.14,12.49,0-6.9,6.89-.33,5.79,11.49-4.69,11.82-.83-2.3,5.79,2.63,4.41,12.81-3.86,11.83-.83,2,6.34-5.59,8.27-15.44-5.51-22,.56-22,4.41-18.72,7.44-8.21,5.52-4.27,8,16.1-3.86,15.11,1.1-5.26,9.37,1.31,5.79,12.81-8.27,12.49-3.58-3.29,9.37,2.95,5.79,10.84-8.28,12.48-4.69.33,5.51,5.59,2.76,8.21-5.79,10.18-3.31,8.54-1.93,8.54-1.93a92,92,0,0,0,11.5-2.76c6.24-1.93-14.45,7.17-20.37,9.65s-12.15-1.93-20.69,3.58-24.31-4.68-23.65.28-2,2.48-12.81,4.41-15.44,4.41-10.18,6.07,7.22,2.48,1,5.79-15.11,3.31-11.17,5.79,17.74,1.93,15.11,5.79-2.95,9.37,4.93,5.79,23-12.13,21.68-6.89-2.3,12.79,3,8,12.81-10.81,11.82-5.85-14.45,18.2-5.25,15.44,16.09-8,14.45-2.48.65,6.62.65,6.62,9.53-7.45,8.22-1.1-4.27,14.88,3.61,8,18.72-14.89,24-13.51-3,8.27,4.93,6.89,8.21-10.2,12.15-5,5.25,9.93,11.17,3,11.49-17.37,13.46-9.65,4.6,12.41,8.87,7.72,11.17-17.64,13.47-12.13-4.6,11.31.66,11,4.27-4.41,4.92,3.31-2,36.12-2,36.12h42.38s-7.23-34.19-5.92-39.71,3.29,3,5.92-1.37-1-11.58,4.27-7.45,23,25.09,25,17.65,3.61-14.62,7.56-10.2,7.88,4.13,7.88,4.13l7.55-2.48s12.16.28,22.34,4.41,9.85,5.52,11.83.28-1.65-9.93,10.18-6.62,4.27-3.31,15.44.28,25,3.31,21.35-.28-10.84-5.24,2-4.14,20.71-3.23,8.64-6.68-25.42-6.9-21.57-9.27,11.55-5,3.59-5.82-14.64-5.61-10-6.47,22.52,5.17,19.35,2.15-3.43-7.33,2.48-5.39,17.72,4.1,15.15.22S438.75,813.05,445.94,813.48Z"/></svg>