<svg id="Original_Colors" data-name="Original Colors" xmlns="http://www.w3.org/2000/svg" viewBox="0 0 1920 1080"><defs><style>.cls-1{fill:#1d1d3a;}</style></defs><title>tree_03Artboard 1</title><path id="Tree_B_3" data-name="Tree B 3" class="cls-1" d="M1368.17,896.82c3.56-.36,9.42-5.27,15.69-3,5.1,1.86,6.05,1.39,10.49,1.53.68-1.06,2-2.11,4.78-2.41,5-.52.21-1.93-1.05-4.56s-5,.35-10.46,1.58-3.55-1.41-2.34-5.82-7.49.73-13.76-2.61,3.35-2.63,9.2-3.16.42-2.46-.42-4.91,13-.53,17.15.7,6.07-.53,10.88-2.11.21-1-2.93-1.58-3.34-1.58-7.74,1.06-3.13-.53-6.79-4.22-4.29-1.05-8.89-3.51,2.62-1.92,11.5-2.46,4.81-.17,11.08,1.06,4,0,7.53-3.34,14-1.93,15.9-4.56-4.18.7-4.18.7l-4.61-.53a46.85,46.85,0,0,0-7.94,2.28c-5.44,1.94-3.35-.35-6.28-3s-2.51-.7-7.32,1-2.3-.87-4.39-4.91-3.76.88-9,1.36-4-1.89-2.09-6.63-4-2.63-8.58-6.49,11.5-1.58,17.26-.88,3-.53,3-3.16,6.69-.18,15.06.7,22.17-3.51,24.26-6.67-2.72.35-4-1.76-4.39.18-9.2,2.11-2.51-.7-2.3-3.51-3.55,0-9.2.88-1.88-3.16-1-6-3.34.88-9,1.4-1.26-3,.42-5.62-4-1.4-7.53-5.26,12.13,1.93,17.78,2.28,2.71-1.23,1.46-4.56c-1-2.57,2.65-1.5,8.36.41a13,13,0,0,1,2.29-.69c1.33-.27,2.88,0,4.15-.32q5.55.74,3.74-6.09a30.55,30.55,0,0,0-3.3-.5c-3.39-.48-6.93-1.38-9-3.2-3.08-.75-.83-.13-5,1.26-5.22,1.75-2.09-1.76-1-5.45s-4.39-.52-7.32,3.34-4.81-.53-3.77-5.16-2.3-3.27-5.64-4.67,11.5,0,18.19-3.16,9-.7,9-.7a53.33,53.33,0,0,0,12.75-.71c6.07-1.22-4.6-1.75.21-4.56s3.77.7,5.86-2.81,6.48-2.11,10-6.14-8.79,2.54-8.79,2.54a5,5,0,0,1-5-1.84c-2.09-2.63-3.76,2.11-8.36,3.69s-2.3-.88-.63-5.62-3.55,1.58-9.41,3.77-4.6-1.49-4.18-6.05-4.81-1.23-9.21-2.81,6.07-2.11,12.55-4.39.63-1.76-1.67-4.74,3.35-1.06,14.22-.7,8.79-1.23,14.64-3.16,0,0-.84-3.52,2.72.18,6.28.18,4.18-5.09,1.67-4.92-1.67,1.58-6.9,0-2.72,1.41-6.48,4.92-1-2.28-2.3-5.44-1.89,2.63-2.51,6-4,.17-4.87-3.69-9.56,1.58-16.26-.18.42-3.16,6.49-3.68,1.88-1.76,6.27-5.27,8.58-.53,12.13-2.63-2.09-1.41-5.65,0-3.13-.88-3-6-4.13-1-10-4.92,3.76-2.1,11.5-2.45,7.11-.53,11.92.87,4.81-1.23,8-4,11.79-3.87,11.79-3.87a67.19,67.19,0,0,0-12,.18c-6.27.7-3.35-3-4.6-7.73s-3.56-1.05-8,.88-2.93-1.75-1.25-6.84-8-2.11-11.92-6.15,8.57-.35,13.59.35.42-1.75,1.25-4.91,10.88,4.56,19,4.91,16.73-8.78,13.59-10.88-2.93,1.4-6.9,2.28-2.09-1.23-5.86-2.81-2.09.53-4.81,2.11-1.88,0-4.18-3-4.18-1.4-11.92-1-6.07-3-8.78-6.67,7.11,1.4,8.57-.35-1.05-2.64,2.3-3,4.81,1.41,8.37,2.64,2.3,0,3.55-1.93,3.56.35,5.44,2.1,3.14,1.58,4-.52,3.14-.71,6.28.7,4.39-1.76,6.68-3.69-.41-1.58-1.87-3.16-2.93.88-6.07,1.23.63-1.23,1.26-2.81-5,.35-5,.35a33.15,33.15,0,0,1-3.77,3.69c-2.3,1.93-4.39,0-5-2.11s1-1.23,3.35-3.86-1.25-1.4-5.44.53-2.93,2.81-5.85,1.23.83-2.46,5.43-5.1-.62-1-6.48-.87-1.46-1.23-6.69-3-5.23-.17-5.44-2.81,5.65-1.58,10-.87,4,1.93,6.69,0,3.35,1.58,7.53,2.8,0-1.58-1-5.26,7.31,2.63,11.92,5.62,1.88-1.58,5-3,3.76-1.23,4.18-3.69-2.09-1.4-5-3.33-3.35-.35-5.23-1.58-2.51,2.81-6.27,0,.41-2.64,2.92-5.44-3.55.87-7.11.17,0-1.58,3.56-3.86-5.65-2.28-8.37-7.2,6.07,1.23,8.37,3,1.88-1.06,1.25-3.87,3.35,2.11,8.58,4.22,2.93-1.58,1.67-4,3.56-1.41,1.26-4.57-2.3-.87-3.77-3.86,2.51-1.93-.42-3.51-2.09-3.51-3.55-6.32,3.55,1.58,5.64,2.28-.41-3,2.1-1.75,5,4.21,7.11,3.16-.42-5.09-1.47-7-.21-1.41.42-4-4.6-4.41-4.39-6.34,7.62,6.34,7.62,6.34l-.09-1.78s-3.35-13.87,0-13.52,3.55.18,3.55,5.27-1.67,9.48.42,8.25,4.81-3.51,4-1.58-3.35,3.34-1.47,4.92,2.09,2.1.63,3.68-3.14,5.45-1.67,5.62,4-8.6,5.43-6.49.63,3.16,3.14,1.75,10-6.32,9.41-3.33-7.74,6.49-5.23,7,8,1.23,5,1.93-5.64.18-4.18,1.93,6.06,4,1.25,3.16-10.87-4-9.82-.7,1.46,3.16-.63,4.39-3.56.88-3.56,4-.62,3.33,2.09,2.8,3.77-.52,2.1,2.11a7.76,7.76,0,0,0-1.47,4.57s5.65-1.76,6.9-4.92,2.3-8.25,4.19-6.5,3.34,1.23,3.34,1.23-4,.35,4.18-1.93-1.67,2.28,2.31,4,2.09,3.51,2.09,3.51-11.3,1.93-9,3.34a6.06,6.06,0,0,1,2.51,4.39l-7.32-1.06s1.47,4.92-2.71,3.69-7.53-2.77-6.7.2,1.26,3.49.42,5.24-4.39,4.22.21,3.34,9-5.27,9.83-2.81-.84,2.28,3.55,4.39,4.61-1.58,8,2.1.63,5.1,6.49,5.62,18.82.7,13,2.28-11.92-1.93-12.34,1.58a5.08,5.08,0,0,1-3.13,4.39s-.63-6.14-4.4-3.16-3.76,4.92-6.48,2.29-4-6.32-6.27-4.39a6.48,6.48,0,0,1-5,1.4s-3.14-.35-2.51,1.76,3.55,4.39,3.55,4.39,5.86-2.46,7.53.52a5.69,5.69,0,0,0,4.18,3.16s10.25-4.56,10.67-1.58-.63,4.39,2.3,4a13.44,13.44,0,0,1,5.44.53l7.53-1.58s6.06-2.11,6.69.17a3.22,3.22,0,0,0,3,2.28s10.14.53,6.16,2.64-13.8,2.1-13.8,2.1,0,7.55-3.14,5.45-8.36-4.92-7.11-2.46,4.6,3.37.63,2.83-8-4.41-9-1.6,0,5.09-3.77,3.33-10.87-7.72-11.08-3.68.62,6.67,8.15,8.42,14.43-3.33,16.94,0,2.51,4.22,7.11,3.87,4.81.7,10.46-1.06,11.92-2.81,8.78-.52-12.54.17-11.71,4.74,9.44,10,1.37,7.37-9.31-7.73-9.94-2.63,5.44,11.06-.84,8.07-8.15-11.41-10-6.32-.83,9.13-4.18,5.79a35.33,35.33,0,0,0-8.78-5.79s-4.4-3.51-6.28-.53,1.47,4.59,6.9,7.65,15.48-2,17.15,1.48a9.55,9.55,0,0,0,5.65,4.57s12.55-4,12.55-.88-1.67,1.76,4.39,3.34,13.39-1.58,10.25,3.16-4,8.25-10.67,6.49-13.38-4-11.5-.88,5.23,6.15.42,5.62-12.13-11.76-14.43-10.18.42.35,1.88,3.69-3.77.87-2.72,3.33,5.23,5.79.21,5.44-14.64-9.44-13.59-6.56-6.28.07-3.56,3.05,10.88,9.48,18.4,9.48,14.85-5.44,14.64-1.75-1.67,3.68,2.3,3.51,5.65-1.41,7.53.88,17.57-1.23,14.64,2.45-11.71,1.58-10,4.74,6.7,6.15,2.1,6-19.87-6.14-17.15-3.68,9.43,6.73,4.71,4.86-10.78-5.74-7-1.7,10.45,9.3,4.39,8.25-15.69-9-14.43-5.45,3.13,5.62-.21,3.34-10.57-3.86-5.18-.53,6.85,7,15,7.9,18.4-2.28,18.82.35,4.81-1.93,5.23,1.06,2.72,6.84-3.77,6.49-9.62.35-7.32,1.93,2.31.71,6.28,2.81,18.82-1,16.31,1.06-4.6,5.83-1.46,5.37,14.43-.28,5.64,2-14.22-1.93-17.14.88,1.46,4.21-6.49,2.46-5,1.58,1,4.74,18.61-.71,18.61,2.1-2.72,2.28,2.93,3.34,14.64-2.81,12.13.35-12.34,2.28-13.8,5.79,2.09,6.85-2.51,5.44-6.49-5.26-9.42-3.68a8.44,8.44,0,0,1-6.27.35s-11.08-4.39-8.16-1.93,9,3.16,13.39,6.49,4.39,3.51,10.25,4.22,16.52-2.81,15.89,0-3.34,3,1,4,16.94.71,13.17,3.52-19.24,3.51-17.77,6.32,7.11,5.61-.84,3.86-19.87-6.67-17.78-4,3.35,6.32-.83,5.79-4.81,0-6.49,1.23.63,1.68-7.74-1.18-8.73-3.56-7.92-.92-2.74.17-2.11,2.1,4.18,7,9.83,6.32,5.22-2.28,9,.18,10.66,2.28,10.66,2.28,3.77-4.56,4.19-2.11c0,0-5.65,4.74.21,4.57s4.81-2.64,8.36.7,17.57,3.69,13.39,4.56-13.6-2.28-9.62,1.94,8.36,8.25,3.55,7.37-15.47-7.2-12.34-3.69,9.83,9,3.56,7-11.71-10.7-11.92-6,.42,7.72-2.72,5.61-8.79-4.39-8.79-1.93,3.77,4.74-1.67,2.11-5.23-2.81-8.36-1.41-10.67-4-8-.52,10.25,9.83,19.66,10.18,8.78-1,13.59,1.4,8.16.53,8.16.53l9-1.23s-8.36,6-4.81,5.62,10-4.56,9.41-2.28,2.72,4,2.72,4,14.22,2.28,9,3.51-16.52-1.41-14.84,2.1-.42,5.09-.42,5.09-7.53-5.26-6.07-1.4,7.53,8.43.84,6.5-13.8-5.1-11.5-1.76,1.25,4.74,4.81,7.55-1.47,3.69,3.55,5.62,18.41,5.79,14,6.14-15.89-2.81-13.59.53,1.25,6.67-1.88,4.21-16.94-9.83-13.81-6,10.88,9.38,5.23,7.85-9.2-8.73-11.08-5.39-1,7.37-4.81,4.56-7.11-6.84-8.79-3.68-5.85,4-5.85,4-5-3.69-8.58-3.52-2.3,3.16-8.78,2.11-6.69-5.27-10-3.51-5.23,3.86-6.48,0,.62-7.9-2.93-5.79-5.86.35-5.86.35l-4.39,1.58v38.27h-27.19l2.72-40.91s-4.39-1.58-7.32.18-3.34,3-6.69,2.81-2.09.88-6.9,3.51-2.72.35-6.28.35-1.67,3.34-6.69,2.81-.42-5.09-5.64-4.21-10.88,3.51-16.53,3-.21-2.11-5.43-2.63-2.31-1.06-6.91-1.41-2.92,2.11-4-1.75-8.57-1.93-5.44-5.27,5-.17,10.46-2.46,12.34-8.07,8-6.32-5.23,5.8-8.79,3.69-8.28.69-14,3-7.78,1.23-2.34-2.8,9.83-7,1.88-4.92-13.11,2.48-6.48,0,10.25-3.86,6.27-4.92-9-1.93-2.92-2.28S1364.62,897.17,1368.17,896.82Z"/></svg>