<svg id="Original_Colors" data-name="Original Colors" xmlns="http://www.w3.org/2000/svg" viewBox="0 0 1920 1080"><defs><style>.cls-1{fill:#1d1d3a;}</style></defs><title>tree_01Artboard 1</title><path id="Tree_B_1" data-name="Tree B 1" class="cls-1" d="M1927.67,748a11.09,11.09,0,0,1-8.5-7.38c-.47-2,3.28-.79,5.62,1.57s2.81.19,2.58-2a.46.46,0,0,1,.3-.54v-19c-7.16-3.07-13-9.09-10.84-7.74,2.81,1.77,4.68.4,2.81-2.36s3.75-1,7.61,2.56c.16.14.27.21.42.34V697.68c-6.28-2.83-11.28-6.32-11.54-7.55-.47-2.16,4.45,2.75,5.62.59s5.15,2.95,5.5.79a.56.56,0,0,1,.42-.51V676.07c-3.37-2-6.8-4.31-10-6.38-7.39-4.72,2.95-1.18,5.29-.39s.47-1.18,1.4-4.91c.44-1.76,1.67-.94,3.35.7V645.77a21.71,21.71,0,0,1-10-.06c-9.26-2.55-11.57-1.18-18.13-4.52s-10.53-9-6.79-7.47,6.09,3.54,9.84,7.28,4.21-1.18,2.1-4.13,4.92-1,8,2.36,3.05.39,5-1.57,6.22,1,8.8,3.53c.55.55,1,.76,1.24.75v-3.31a7.27,7.27,0,0,0-1-1.76c-.5-.63,0-.87,1-.88V627.3a8.6,8.6,0,0,1-1.94-.46c-2.15-1,.35-1.35,1.94-2.25v-2.43c-1.93-.32-6.08,1-10,2.33-5.28,1.77-18.18-4.63-19.36-8.37s.06-4.21,5.21-2.64,6.79,4.72,10.54,4.52-4.45-4.13-3.28-6.09,11.94,2.36,15,3.34c2.7.87-.48-2.12,1.94-3.63V601.31a10.79,10.79,0,0,1-3.82,2c-3.27.41,2.81-2.39,2.11-4.94s-5.85,1.57-12.88,3.53-9.6,3.48-15.22,1.71-4.68-5.64-3-8.39,2.58,0,5.15,1.57-.23-3.53,3-3.53,3.75,4.52,5.8,4.71,1-4.91,0-6.68,4.27-1.38,5.91-2.55,6.32.58,7.73-2-4-4.32-4.22-4.91,6.11-.79,9.44-2.68v-2.28a36.2,36.2,0,0,1-5-2.32c-3.28-2.16,4-5.11,4.45-7.86s-13.34,8.26-16.15,6.68-4,2.76-8.47,5.7a56.08,56.08,0,0,1-7.69,4.33,29.81,29.81,0,0,1,1.64-5.31c.94-2,2.11-2.75,6-3.54s.74-2.55,0-4.91,1.68-5.31,0-7.08-3.48,2.17-4.41,5.31-4.45,5.31-4.45,5.31a61.07,61.07,0,0,1,1.17-8.26c.7-2.36,6.79-8.06,10.54-8.64s8.19,1.37,10.53,0-6.55-1.77-8.66-2.56,7-10.61,6.09-12.58-8,7.47-9.77,6.09.17-3.73-2.88-3.14-1.64,5.11-1.64,5.11l-2.89,7.08v-8.85s-1.32-3.34,3.13-7.27,4.68-6.68,4-8.06-8.66,8.65-9.84,6.49-.7-14.55-2.57-15.33-1.87,11.79-2.11,12.38l.09,2.87c-1.72.51-5.39-2.24-5-.85.42,1.69,2.54,2.31,3.28,4.53s-5,.09-1.91,2.67a45.54,45.54,0,0,0,3.95,2.68l.15,5.06c-2.55-.49-7-4.33-8.75-6.94-2.44-3.56-6.89-6.58-5.83-3.56s2,6.76-1.16,3.82-10.27-8.53-8.79-4.62,9.11,6.31,6.35,8.27-6.88,3.46-3.28,3.82,11.54-2.93,8.68-.53-7.83,6.57-4.23,6.66,11.33-6.66,11.64-4.44-5.71,4.09-5.08,6.4,3.39,3.73,4.13,1.24,3.5-5.06,4-3.2-1.48,2.58,0,5.42.65,3.19,1,6.49-1,10.31-3.39,9.07-9-5.07-10.27-8.09-2.22-8.89-3.18-5.69-1.27,4-2.75,1.07-6.56-10.13-7.09-7.38.74,6.4-2.33,3.82-6.46-6.49-7-3.82,5.5,4.27,3.6,6.49-6.35,2-3.18,4.18,11.23,2.66,9.43,5.42-5.3,2.69-1.49,4.14,7.2-1.21,8.37,1.28-2.54,3.55,2.75,3.64,7.09-.8,8.36,1.07,2.12,4.35-2.11,2.58-9.85-1.69-15.57-4.63-9.74-.88-13.34-3.11-6.56-3.91-5.71-.71,4.12,4.54,6.77,6.4-2.33,2.4,2.12,3.91,10.27-.44,9.53,2.4-5.72,3.56.42,4.54,7.41-1.25,8.58.44,1,1.51,3.81.35,5.5-2.57,5.82-1-3.6,4.09-3.6,4.09-9.84,2.66-15,0-11.65-4.8-11.44-2.32,5.3,2.94,1,4.18-12.5-4-12.18-.44-.21,7,4.76,7.11,4.13-1.69,5.51,2.49,3.28,9.15,7,2.93,5.82-9.78,6.46-6.76,1.48,4,3.07,3,1.14-1.6,1.47.35.86,5.87,3.08,3.2,3.6-6,4.13-3.55,1.48,3.64-.11,5.24-9.34.71-7.1,2.84,4.77,3.2,1.28,3.91-14.4-1-17.26-2.48-7.09-3.38-6-.54,2.64,4-1.17,3.82-4.14-.26-5.09,1.34-4.86,0-4.86,0-7.73-4.62-8.68-2.14.63,3.56-3,3.12-11.11-.18-8,2.13,12.17.35,11.33,3-1.28,4.53,2,3.91,4.76-3.11,4.87-.09-1.17,5.78,3,3.47,7.94-5.78,8.47-2.58-4,6.4,1,6.67,11-7.38,11.22-4.36,3.49,3.38,3.49,3.38,6.88-4.71,6.67-2.22-1.27,8.44-8.15,7.46-11.75-3.82-12.6-1.42,4.66,3.91,1.69,4.44-10.69-2.48-14.39-2.75,1.48,2.31-1.49,2.75-12.81-3.91-12.07-1.68,7.63,3.64,1.59,5-13.76,5.16-8.89,5.25,4.26-1.25,6.1.8,1.73,2.31,2.79,1.15,5.61-4.89,5.61-2.66-.63,4.26,1.06,3.46,9.21-6.31,8.79-4.44-7.94,4.44-6.46,6.84,7.73-2.93,7.31-.35.1,4.26,2.22,2.39,7.62-3.28,8.89.18,1.7,5.42,5,2.85,5.08-1.69,5.08-1.69,3.5,1.06,4.87-.18,5.51-2.22,5.93-1.07-4.34,4.71-10.59,6.94-25-.18-22.87,2.4,8.47,3.64,3.29,4.17-20.62-5.15-20.9-2.49,3.45,4.8,0,4.89-16.8,3.11-15.42,5.42,4.87-2,7,.63-2,5.86,1.59,5.06,8.68-2.31,8.47.09-3.07,4.71-.53,5.16,11.86-9.16,11.11-6.67-5.93,3.56-4.44,6.4,8-1.69,10.37-1.51-3.6,5,1.38,5.06,7.73-3,8.47-1.15-.11,3.55,2,2,8.26-6,7.1-3.64-5.93,3.55-6.46,6.58-6.78.26-8.58,1.86-3.18,3.29-6,2.58-17.66-4.18-16-1.69,5.25,5.87,0,5.42-11.93-3.82-11.71-1.6a2.43,2.43,0,0,1-2.12,2.58s-12.71-1.69-11.54,1.16,6.24,1.33,6.77,4.44-3.7,5.24,1.49,5.42.53,1.16,7.83.89,13.66-3,11.54-1.24-9.85,8.44-6.67,9,3.5-1.24,6.88.09,5.93-1.42,8.16-1.51-.43,1.42.42,3.11,7.73-1.33,5.08,1.6-30.39-.53-28.8,1.51,8.26,3.56,4.66,3.91-18.63-5.15-16.73-1.69,8.79,5,6.36,6.85-4.66,2.75-1.06,2.75,4.23-3.2,7.09.18,8.79,4.09,2.22,5.42-19.9-2.4-20,0,1.38,4.44-2.54,2.76-12.6-2.4-9.74.35,11.44,3.2,9.74,6.22-4.13,5.69,0,4.8,7.2-4,8.26-1.69-2.22,5.07,3.07,2.49,6.67-3.91,7.52-1.86.53,4.08,4.13,2.84,5.29-.36,4,.44-28.48,4.09-26.47,5.78,7.94,1.87,4,3-14.79-4.71-14.86-1.86-4.19,2.4-4.19,2.4-10.7-3.47-8.47-.54,10.9,8.09,14.18,7.91,6.89-1,4.34,1.42-6.45,5.25-.95,4.45,9.53-3.82,10.06-1.87-.74,2.22,2.54,1.42,8.15-2,6.88.27-11.85,5.6-18.53,6.13-14.39,1.42-11.85,2.49,5.61,3.56.74,2.93-7.73-1.42-8.68.09-1.49,1.78-5.51.27-8.79-1.24-6.46.8,5.82,3,5.3,5.6-6.89,4,2.54,5.6,20-3.29,19.16-1.51a1.62,1.62,0,0,0,.64,2.4s5.61-2.67,4.23-.09-5.19,8.62.53,8.17,11.12-5.68,11.86-3.28,4.34,1.68,4.34,1.68,10.9-4.53,11.33-2.66.1,3.73,3.7,2,5.26-1.06,5.26-1.06l3.74,1.06s5-2.31,3.29-.35-15.36,10.84-26,10.66-23.19.09-21.07,1.78,3.92,4,.11,3-4.66-.53-7.42-.26-13.34-2.14-13-.27,3.81,4,0,4.26-14.36,1.6-9.08,3.56,13.21-2.76,14.8,1.16-1.06,7.19,4.23,5.59,17.58-1.51,18.32,1.07-1.37,5.16,2,4.18,10-5.33,9.43-1.78-2.33,6.93,1.27,5.33,5.71-5,8.68-3.91-1.8,4.36,2.86,3.11,6.46-5.06,7-2.75.07,3,2,1.51,7.17-3,1.24.8-16.31,3.29-13.55,5.42,4.44,1.51,3,4.09,5.29,3.46.32,4.8-5.34,2.62-9.07,2.55c-3.87-.85-5.68-3.48-10-4.8-6-1.84-4.21,3.23.55,4.92s-15,.31-22-4.3-6.23-2.31-10.07-1.23,8.6,5.22,5.85,6.3-13-4.92-17-3.08,11.72,4.15,14.83,6.77-8.79,2.15-15.2,3.53,5.68,3.23,10.8,2.92,0,2.77-1.83,5.53,6.59,1.23,10.8-.15,4,1.69,1.77,3.84,10.5-2.15,13.8-1.54-1.47,4-7.14,4.61-.19,2.46,2.56,4.15-6.77,4.15-15.38,6.61-3,5.55,6.16,4.77,4,.39,1.41,2.95,7.26,2.75,15.22.19,2.57,2.17,11-.19,5.85,1,7.26,4.71,1.17,2.76,8.43-.19a52,52,0,0,1,15.92-3.15l5.39,1.77s2.81.2,5.62-3,4,2,5.38,7.28,14-9.64,17.8-12.58,1.17,2.16,3,5.3,3.28-2.94,4.21,1-4.21,28.3-4.21,28.3h30.2s-1.87-20.25-1.4-25.75-.23-2.55,3.51-2.36-1.17-3.93.47-7.86,6.56,5.31,9.6,8.65,4.92,0,6.32-5.5,5.39,2,9.6,6.87c1.43,1.67,2.47,2.37,3.35,2.45Z"/></svg>