<svg id="Original_Colors" data-name="Original Colors" xmlns="http://www.w3.org/2000/svg" viewBox="0 0 1920 1080"><defs><style>.cls-1{fill:#1d1d3a;}</style></defs><title>tree_07Artboard 1</title><path id="Tree_B_7" data-name="Tree B 7" class="cls-1" d="M470.34,864.1c3-.29,7.94-4.44,13.24-2.52,4.3,1.57,5.11,1.18,8.86,1.29.57-.89,1.67-1.78,4-2,4.24-.44.18-1.63-.88-3.85s-4.24.29-8.83,1.33-3-1.18-2-4.91-6.32.61-11.62-2.2,2.83-2.22,7.77-2.67.35-2.07-.35-4.15,10.95-.44,14.48.59,5.12-.44,9.18-1.77.17-.89-2.47-1.34-2.83-1.33-6.54.89-2.65-.44-5.73-3.56-3.62-.89-7.51-3,2.21-1.62,9.71-2.08,4.06-.14,9.36.89,3.35,0,6.36-2.81,11.83-1.63,13.41-3.86-3.53.6-3.53.6l-3.88-.45a39.79,39.79,0,0,0-6.71,1.93c-4.59,1.63-2.83-.3-5.3-2.52s-2.12-.59-6.18.89-1.94-.74-3.7-4.15-3.18.74-7.6,1.15-3.35-1.6-1.76-5.6-3.36-2.22-7.24-5.48,9.71-1.33,14.57-.74,2.55-.45,2.55-2.67,5.65-.15,12.72.59,18.71-3,20.48-5.63-2.3.3-3.36-1.48-3.7.15-7.77,1.78-2.11-.6-1.94-3-3,0-7.77.74-1.58-2.66-.88-5-2.82.74-7.59,1.18-1.06-2.52.35-4.74-3.35-1.19-6.35-4.45,10.24,1.63,15,1.93,2.3-1,1.24-3.85c-.81-2.17,2.24-1.27,7.05.34a11.17,11.17,0,0,1,1.94-.58c1.12-.23,2.43,0,3.51-.27q4.68.63,3.15-5.14a26.07,26.07,0,0,0-2.79-.42c-2.86-.41-5.84-1.17-7.62-2.7-2.6-.63-.7-.11-4.18,1.06-4.41,1.48-1.77-1.48-.88-4.6s-3.71-.44-6.18,2.82-4.06-.44-3.18-4.35-1.94-2.76-4.77-4,9.71,0,15.36-2.67,7.59-.59,7.59-.59a45.31,45.31,0,0,0,10.77-.59c5.12-1-3.88-1.48.18-3.86s3.18.6,4.94-2.37,5.48-1.78,8.48-5.18-7.42,2.14-7.42,2.14A4.21,4.21,0,0,1,527.9,757c-1.77-2.23-3.18,1.78-7.07,3.11s-1.94-.74-.53-4.74-3,1.33-7.94,3.18-3.89-1.26-3.53-5.11-4.06-1-7.77-2.37,5.12-1.78,10.59-3.71.53-1.48-1.41-4,2.83-.89,12-.59,7.41-1,12.36-2.67,0,0-.71-3,2.29.15,5.3.15,3.53-4.3,1.41-4.15-1.41,1.33-5.83,0-2.29,1.18-5.47,4.15-.88-1.93-1.94-4.6-1.59,2.22-2.12,5-3.36.15-4.11-3.11-8.07,1.33-13.72-.15.35-2.67,5.47-3.11,1.59-1.48,5.3-4.45,7.23-.44,10.24-2.22-1.77-1.19-4.77,0-2.65-.74-2.52-5-3.48-.89-8.43-4.15,3.18-1.78,9.71-2.08,6-.44,10.07.75,4.06-1,6.71-3.41,9.95-3.26,9.95-3.26a56.12,56.12,0,0,0-10.13.14c-5.3.6-2.83-2.51-3.88-6.52s-3-.89-6.71.74-2.48-1.48-1.06-5.78-6.71-1.77-10.07-5.18,7.24-.3,11.48.29.35-1.48,1.06-4.15,9.18,3.86,16.07,4.15S560,683.73,557.38,682s-2.47,1.19-5.82,1.93-1.77-1-4.95-2.37-1.76.44-4.06,1.78-1.59,0-3.53-2.52-3.53-1.19-10.06-.89-5.12-2.52-7.42-5.63,6,1.18,7.24-.3-.88-2.22,1.94-2.52,4.06,1.19,7.06,2.22,2,0,3-1.63,3,.3,4.59,1.78,2.64,1.34,3.35-.44,2.65-.59,5.3.59,3.71-1.48,5.64-3.11-.35-1.33-1.58-2.67-2.47.74-5.12,1,.53-1,1.06-2.37-4.24.29-4.24.29a27.82,27.82,0,0,1-3.18,3.12c-1.94,1.63-3.71,0-4.24-1.78s.89-1,2.83-3.26-1.06-1.19-4.59.44-2.47,2.37-4.94,1,.7-2.08,4.59-4.3-.53-.89-5.48-.74-1.23-1-5.65-2.52-4.41-.15-4.59-2.37,4.77-1.33,8.48-.74,3.35,1.63,5.65,0,2.82,1.33,6.35,2.37,0-1.33-.88-4.45,6.18,2.23,10.06,4.75,1.59-1.34,4.24-2.52,3.18-1,3.53-3.12-1.76-1.18-4.23-2.81-2.83-.3-4.42-1.34-2.12,2.38-5.3,0,.36-2.22,2.48-4.59-3,.74-6,.15,0-1.34,3-3.26-4.76-1.93-7.06-6.08,5.12,1,7.06,2.52,1.59-.89,1.06-3.26,2.83,1.78,7.24,3.56,2.47-1.34,1.42-3.41,3-1.19,1-3.86-1.94-.74-3.17-3.26,2.12-1.63-.36-3-1.76-3-3-5.34,3,1.34,4.77,1.93-.35-2.52,1.76-1.48,4.24,3.56,6,2.67-.36-4.3-1.24-5.93-.17-1.19.36-3.39-3.89-3.73-3.71-5.36,6.43,5.36,6.43,5.36l-.08-1.5s-2.82-11.71,0-11.41,3,.14,3,4.44-1.42,8,.35,7,4.06-3,3.35-1.34-2.82,2.82-1.23,4.15,1.76,1.78.53,3.12-2.65,4.59-1.42,4.74,3.36-7.26,4.59-5.49.53,2.67,2.65,1.49,8.48-5.34,7.95-2.82-6.53,5.48-4.42,5.93,6.71,1,4.24,1.63-4.77.15-3.53,1.63,5.12,3.41,1.06,2.67-9.18-3.41-8.3-.6,1.24,2.67-.53,3.71-3,.74-3,3.41-.53,2.81,1.77,2.37,3.17-.44,1.76,1.78a6.53,6.53,0,0,0-1.23,3.85s4.76-1.48,5.82-4.15,1.94-7,3.53-5.48,2.83,1,2.83,1-3.36.29,3.53-1.63-1.41,1.92,1.94,3.4,1.77,3,1.77,3-9.54,1.63-7.59,2.81a5.11,5.11,0,0,1,2.11,3.71l-6.18-.89s1.24,4.15-2.29,3.11-6.36-2.33-5.65.17,1.06,2.95.35,4.43-3.71,3.55.18,2.81,7.59-4.44,8.3-2.37-.71,1.93,3,3.71,3.88-1.34,6.71,1.78.53,4.29,5.47,4.74,15.89.59,10.95,1.92-10.07-1.63-10.42,1.34a4.29,4.29,0,0,1-2.65,3.7s-.53-5.18-3.71-2.66-3.17,4.15-5.47,1.92-3.35-5.33-5.3-3.7a5.44,5.44,0,0,1-4.23,1.18s-2.65-.29-2.12,1.49,3,3.7,3,3.7,4.94-2.07,6.36.45a4.82,4.82,0,0,0,3.53,2.66s8.65-3.85,9-1.33-.53,3.7,1.94,3.41a11.29,11.29,0,0,1,4.59.44l6.36-1.33s5.12-1.78,5.65.15a2.72,2.72,0,0,0,2.57,1.92s8.55.45,5.2,2.23-11.65,1.78-11.65,1.78,0,6.37-2.65,4.59-7.06-4.15-6-2.08,3.89,2.85.53,2.39-6.7-3.72-7.59-1.35,0,4.3-3.18,2.82-9.18-6.52-9.35-3.11.53,5.63,6.88,7.11,12.19-2.82,14.3,0,2.12,3.56,6,3.26,4.06.59,8.83-.89,10.06-2.37,7.41-.44-10.59.14-9.89,4,8,8.45,1.16,6.22-7.87-6.52-8.4-2.22,4.59,9.34-.7,6.82-6.89-9.64-8.48-5.34-.7,7.71-3.53,4.89a29.75,29.75,0,0,0-7.41-4.89s-3.71-3-5.3-.44,1.24,3.87,5.83,6.45,13.06-1.71,14.47,1.25a8,8,0,0,0,4.77,3.86s10.59-3.41,10.59-.74-1.41,1.48,3.71,2.81,11.3-1.33,8.65,2.67-3.35,7-9,5.48-11.3-3.4-9.71-.74,4.41,5.19.35,4.75-10.24-9.93-12.18-8.6.35.3,1.59,3.11-3.18.74-2.3,2.82,4.42,4.89.18,4.59-12.36-8-11.48-5.54-5.29.06-3,2.58,9.18,8,15.54,8,12.53-4.59,12.36-1.48-1.41,3.11,1.94,3,4.77-1.18,6.36.74,14.83-1,12.36,2.08-9.89,1.33-8.48,4,5.65,5.19,1.77,5-16.78-5.19-14.48-3.11,8,5.69,4,4.1-9.1-4.84-5.92-1.43,8.82,7.85,3.7,7-13.24-7.56-12.18-4.59,2.65,4.74-.18,2.81-8.91-3.26-4.37-.44,5.79,5.93,12.67,6.67,15.54-1.93,15.89.29,4.06-1.63,4.42.89,2.29,5.78-3.18,5.49-8.12.29-6.18,1.63,1.94.59,5.3,2.37,15.89-.89,13.77.89-3.89,4.92-1.24,4.54,12.18-.24,4.77,1.68-12-1.63-14.48.74,1.24,3.56-5.47,2.08-4.24,1.33.88,4,15.71-.59,15.71,1.78-2.29,1.93,2.48,2.81,12.36-2.37,10.24.3-10.42,1.93-11.66,4.89,1.77,5.78-2.11,4.6-5.48-4.45-8-3.12a7.12,7.12,0,0,1-5.3.3s-9.35-3.7-6.88-1.63,7.59,2.67,11.3,5.48,3.71,3,8.65,3.56,13.95-2.37,13.42,0-2.83,2.52.88,3.41,14.3.59,11.12,3-16.24,3-15,5.34,6,4.74-.71,3.26-16.77-5.63-15-3.41,2.83,5.34-.7,4.89-4.06,0-5.48,1,.53,1.42-6.53-1-7.38-3-6.69-.78-2.31.15-1.79,1.78,3.54,5.93,8.3,5.33,4.42-1.92,7.6.15,9,1.93,9,1.93,3.18-3.85,3.53-1.78c0,0-4.77,4,.18,3.85s4.06-2.22,7.06.6,14.83,3.11,11.3,3.85-11.48-1.93-8.12,1.63,7.06,7,3,6.23-13.07-6.08-10.42-3.12,8.3,7.56,3,5.93-9.88-9-10.06-5,.35,6.52-2.3,4.75-7.41-3.71-7.41-1.63,3.18,4-1.41,1.77-4.42-2.37-7.07-1.18-9-3.41-6.7-.45,8.65,8.3,16.59,8.6,7.42-.89,11.48,1.18,6.88.45,6.88.45l7.6-1s-7.07,5-4.06,4.74,8.47-3.85,7.94-1.92,2.3,3.41,2.3,3.41,12,1.92,7.59,3-14-1.18-12.54,1.78-.35,4.3-.35,4.3-6.36-4.45-5.12-1.19,6.36,7.12.7,5.49-11.65-4.3-9.71-1.49,1.06,4,4.07,6.38-1.24,3.11,3,4.74,15.53,4.89,11.83,5.19-13.42-2.37-11.48.44,1.06,5.63-1.59,3.56-14.3-8.3-11.65-5,9.18,7.91,4.41,6.62-7.77-7.36-9.36-4.55-.88,6.23-4.06,3.86-6-5.78-7.41-3.11-5,3.4-5,3.4-4.23-3.11-7.23-3-1.95,2.67-7.42,1.78-5.65-4.45-8.48-3-4.41,3.26-5.47,0,.53-6.67-2.47-4.89-4.94.3-4.94.3l-3.71,1.33V917h-23l2.29-34.53s-3.71-1.33-6.18.15-2.82,2.52-5.65,2.37-1.76.74-5.83,3-2.29.3-5.29.3-1.41,2.82-5.65,2.37-.36-4.3-4.77-3.56-9.18,3-13.95,2.52-.17-1.77-4.59-2.22-1.94-.89-5.82-1.18-2.48,1.77-3.36-1.49-7.24-1.63-4.59-4.44,4.24-.15,8.83-2.08,10.41-6.82,6.71-5.33-4.42,4.89-7.42,3.11-7,.58-11.8,2.51-6.56,1-2-2.36,8.3-5.93,1.59-4.15-11.07,2.09-5.47,0,8.65-3.26,5.29-4.15-7.59-1.63-2.47-1.93S467.34,864.4,470.34,864.1Z"/></svg>